G04 #@! TF.GenerationSoftware,KiCad,Pcbnew,(5.99.0-12896-g1860893d63)*
G04 #@! TF.CreationDate,2021-12-10T21:36:47+01:00*
G04 #@! TF.ProjectId,HP_44491A_to_UTP_v2,48505f34-3434-4393-9141-5f746f5f5554,rev?*
G04 #@! TF.SameCoordinates,Original*
G04 #@! TF.FileFunction,Copper,L1,Top*
G04 #@! TF.FilePolarity,Positive*
%FSLAX46Y46*%
G04 Gerber Fmt 4.6, Leading zero omitted, Abs format (unit mm)*
G04 Created by KiCad (PCBNEW (5.99.0-12896-g1860893d63)) date 2021-12-10 21:36:47*
%MOMM*%
%LPD*%
G01*
G04 APERTURE LIST*
G04 Aperture macros list*
%AMFreePoly0*
4,1,7,-2.370000,-16.300000,-5.155000,-16.300000,-5.155000,-13.800000,-3.970000,-13.800000,-3.970000,-5.600000,-2.370000,-5.600000,-2.370000,-16.300000,-2.370000,-16.300000,$1*%
%AMFreePoly1*
4,1,7,1.600000,-16.300000,-1.185000,-16.300000,-1.185000,-13.800000,0.000000,-13.800000,0.000000,0.000000,1.600000,0.000000,1.600000,-16.300000,1.600000,-16.300000,$1*%
G04 Aperture macros list end*
G04 #@! TA.AperFunction,WasherPad*
%ADD10C,3.650000*%
G04 #@! TD*
G04 #@! TA.AperFunction,ComponentPad*
%ADD11R,1.500000X1.500000*%
G04 #@! TD*
G04 #@! TA.AperFunction,ComponentPad*
%ADD12C,1.500000*%
G04 #@! TD*
G04 #@! TA.AperFunction,ComponentPad*
%ADD13C,3.000000*%
G04 #@! TD*
G04 #@! TA.AperFunction,ComponentPad*
%ADD14C,0.900000*%
G04 #@! TD*
G04 #@! TA.AperFunction,ComponentPad*
%ADD15C,12.800000*%
G04 #@! TD*
G04 #@! TA.AperFunction,WasherPad*
%ADD16C,8.000000*%
G04 #@! TD*
G04 #@! TA.AperFunction,ConnectorPad*
%ADD17FreePoly0,0.000000*%
G04 #@! TD*
G04 #@! TA.AperFunction,ConnectorPad*
%ADD18FreePoly1,0.000000*%
G04 #@! TD*
G04 #@! TA.AperFunction,Conductor*
%ADD19C,0.400000*%
G04 #@! TD*
G04 #@! TA.AperFunction,Conductor*
%ADD20C,1.500000*%
G04 #@! TD*
G04 APERTURE END LIST*
D10*
X136452000Y-65051800D03*
X136452000Y-76481800D03*
D11*
X130102000Y-66321800D03*
D12*
X127562000Y-67591800D03*
X130102000Y-68861800D03*
X127562000Y-70131800D03*
X130102000Y-71401800D03*
X127562000Y-72671800D03*
X130102000Y-73941800D03*
X127562000Y-75211800D03*
D13*
X139500000Y-78559800D03*
X139500000Y-63019800D03*
D14*
X97840800Y-69977600D03*
X93040800Y-74777600D03*
X101234913Y-78171713D03*
X94446687Y-71383487D03*
X101234913Y-71383487D03*
D15*
X97840800Y-74777600D03*
D14*
X97840800Y-79577600D03*
X102640800Y-74777600D03*
X94446687Y-78171713D03*
D10*
X165789000Y-76350000D03*
X165789000Y-64920000D03*
D11*
X159439000Y-75080000D03*
D12*
X156899000Y-73810000D03*
X159439000Y-72540000D03*
X156899000Y-71270000D03*
X159439000Y-70000000D03*
X156899000Y-68730000D03*
X159439000Y-67460000D03*
X156899000Y-66190000D03*
D13*
X168837000Y-78382000D03*
X168837000Y-62842000D03*
D10*
X118418000Y-65097800D03*
X118418000Y-76527800D03*
D11*
X112068000Y-75257800D03*
D12*
X109528000Y-73987800D03*
X112068000Y-72717800D03*
X109528000Y-71447800D03*
X112068000Y-70177800D03*
X109528000Y-68907800D03*
X112068000Y-67637800D03*
X109528000Y-66367800D03*
D13*
X121466000Y-78559800D03*
X121466000Y-63019800D03*
D16*
X150096000Y-48026000D03*
X116096000Y-48026000D03*
D14*
X97942400Y-33274000D03*
D17*
X102536000Y-17526000D03*
D14*
X101904800Y-33274000D03*
D18*
X102536000Y-17526000D03*
D14*
X113842800Y-33274000D03*
D17*
X118416000Y-17526000D03*
D14*
X117805200Y-33274000D03*
D18*
X118416000Y-17526000D03*
D17*
X134296000Y-17526000D03*
D14*
X129692400Y-33274000D03*
D18*
X134296000Y-17526000D03*
D14*
X133654800Y-33274000D03*
D17*
X150176000Y-17526000D03*
D14*
X145592800Y-33274000D03*
D18*
X150176000Y-17526000D03*
D14*
X149555200Y-33274000D03*
X105918000Y-33274000D03*
D17*
X110476000Y-17526000D03*
D18*
X110476000Y-17526000D03*
D14*
X109829600Y-33274000D03*
D17*
X126356000Y-17526000D03*
D14*
X121767600Y-33274000D03*
X125730000Y-33274000D03*
D18*
X126356000Y-17526000D03*
D17*
X142236000Y-17526000D03*
D14*
X137668000Y-33274000D03*
X141630400Y-33274000D03*
D18*
X142236000Y-17526000D03*
D17*
X158116000Y-17526000D03*
D14*
X153517600Y-33274000D03*
D18*
X158116000Y-17526000D03*
D14*
X157480000Y-33274000D03*
D17*
X166056000Y-17526000D03*
D14*
X161442400Y-33274000D03*
X165455600Y-33274000D03*
D18*
X166056000Y-17526000D03*
D14*
X169418000Y-33274000D03*
D17*
X173996000Y-17526000D03*
D18*
X173996000Y-17526000D03*
D14*
X173355000Y-33274000D03*
D19*
X130352800Y-61772800D02*
X130352800Y-59740800D01*
X131798200Y-68861800D02*
X132080000Y-68580000D01*
X132080000Y-68580000D02*
X132080000Y-63500000D01*
X130102000Y-68861800D02*
X131798200Y-68861800D01*
X132080000Y-63500000D02*
X130352800Y-61772800D01*
X126492000Y-62711800D02*
X130102000Y-66321800D01*
X126492000Y-60902800D02*
X126492000Y-62711800D01*
D20*
X126492000Y-44196000D02*
X126492000Y-60902800D01*
X129692400Y-40995600D02*
X126492000Y-44196000D01*
X145592800Y-38811200D02*
X145592800Y-33274000D01*
D19*
X133068200Y-71401800D02*
X130102000Y-71401800D01*
X133604000Y-70866000D02*
X133068200Y-71401800D01*
X133604000Y-60325000D02*
X133604000Y-70866000D01*
D20*
X133604000Y-60325000D02*
X133604000Y-50800000D01*
X133604000Y-50800000D02*
X145592800Y-38811200D01*
X153517600Y-35458400D02*
X153517600Y-33274000D01*
X139039600Y-49936400D02*
X153517600Y-35458400D01*
X139039600Y-59029600D02*
X139039600Y-49936400D01*
D19*
X133068200Y-73941800D02*
X130102000Y-73941800D01*
X134823200Y-72186800D02*
X133068200Y-73941800D01*
D20*
X139065000Y-59055000D02*
X139039600Y-59029600D01*
D19*
X142240000Y-69900800D02*
X139954000Y-72186800D01*
X142240000Y-62230000D02*
X142240000Y-69900800D01*
X139065000Y-59055000D02*
X142240000Y-62230000D01*
X139954000Y-72186800D02*
X134823200Y-72186800D01*
X97536000Y-63144400D02*
X97536000Y-62687200D01*
X105435400Y-72821800D02*
X105435400Y-71043800D01*
X105435400Y-71043800D02*
X97536000Y-63144400D01*
D20*
X97536000Y-33680400D02*
X97536000Y-62687200D01*
D19*
X112068000Y-75257800D02*
X111303600Y-76022200D01*
D20*
X97942400Y-33274000D02*
X97536000Y-33680400D01*
D19*
X111303600Y-76022200D02*
X108635800Y-76022200D01*
X108635800Y-76022200D02*
X105435400Y-72821800D01*
D20*
X105918000Y-41503600D02*
X100126800Y-47294800D01*
X105918000Y-33274000D02*
X105918000Y-41503600D01*
D19*
X108354000Y-72717800D02*
X106603800Y-70967600D01*
X106603800Y-69697600D02*
X100101400Y-63195200D01*
D20*
X100126800Y-62941200D02*
X100101400Y-62966600D01*
D19*
X100101400Y-63195200D02*
X100101400Y-62966600D01*
X106603800Y-70967600D02*
X106603800Y-69697600D01*
X112068000Y-72717800D02*
X108354000Y-72717800D01*
D20*
X100126800Y-47294800D02*
X100126800Y-62941200D01*
X113842800Y-33274000D02*
X113842800Y-37668200D01*
D19*
X107467400Y-67614800D02*
X103276400Y-63423800D01*
D20*
X103276400Y-48234600D02*
X103276400Y-63144400D01*
D19*
X112068000Y-70177800D02*
X108633400Y-70177800D01*
X108633400Y-70177800D02*
X107467400Y-69011800D01*
X103276400Y-63423800D02*
X103276400Y-63144400D01*
X107467400Y-69011800D02*
X107467400Y-67614800D01*
D20*
X113842800Y-37668200D02*
X103276400Y-48234600D01*
D19*
X110159800Y-63754000D02*
X108280200Y-63754000D01*
D20*
X121767600Y-33274000D02*
X121767600Y-34061400D01*
X121767600Y-34061400D02*
X106324400Y-49504600D01*
D19*
X112068000Y-65662200D02*
X110159800Y-63754000D01*
X112068000Y-67637800D02*
X112068000Y-65662200D01*
D20*
X106324400Y-49504600D02*
X106324400Y-61798200D01*
D19*
X108280200Y-63754000D02*
X106324400Y-61798200D01*
D20*
X129692400Y-33274000D02*
X129692400Y-40487600D01*
X129692400Y-40487600D02*
X129692400Y-40995600D01*
D19*
X129692400Y-40995600D02*
X129692400Y-33274000D01*
D20*
X137668000Y-40132000D02*
X130352800Y-47447200D01*
X130352800Y-47447200D02*
X130352800Y-59740800D01*
X137668000Y-33274000D02*
X137668000Y-40132000D01*
D19*
X159439000Y-75080000D02*
X158169000Y-75080000D01*
X154330400Y-72796400D02*
X154330400Y-65074800D01*
X155344000Y-73810000D02*
X154330400Y-72796400D01*
D20*
X161442400Y-33274000D02*
X161442400Y-60452000D01*
X161442400Y-60452000D02*
X158191200Y-63703200D01*
D19*
X155346400Y-64058800D02*
X157835600Y-64058800D01*
X156899000Y-73810000D02*
X155344000Y-73810000D01*
X154330400Y-65074800D02*
X155346400Y-64058800D01*
X158169000Y-75080000D02*
X156899000Y-73810000D01*
X157835600Y-64058800D02*
X158191200Y-63703200D01*
X161950400Y-69037200D02*
X161950400Y-63017400D01*
D20*
X167563800Y-47574200D02*
X167563800Y-57404000D01*
D19*
X160987600Y-70000000D02*
X161950400Y-69037200D01*
X157630000Y-68730000D02*
X156899000Y-68730000D01*
X159439000Y-70000000D02*
X158900000Y-70000000D01*
D20*
X167563800Y-57404000D02*
X165061900Y-59905900D01*
D19*
X158900000Y-70000000D02*
X157630000Y-68730000D01*
X159439000Y-70000000D02*
X160987600Y-70000000D01*
D20*
X169418000Y-45720000D02*
X167563800Y-47574200D01*
X169418000Y-33274000D02*
X169418000Y-45720000D01*
D19*
X161950400Y-63017400D02*
X165061900Y-59905900D01*
G04 #@! TA.AperFunction,Conductor*
G36*
X159492750Y-59710002D02*
G01*
X159539243Y-59763658D01*
X159549347Y-59833932D01*
X159519853Y-59898512D01*
X159513724Y-59905095D01*
X156906709Y-62512110D01*
X156905199Y-62513863D01*
X156905192Y-62513870D01*
X156845174Y-62583525D01*
X156780103Y-62659044D01*
X156777609Y-62662996D01*
X156777608Y-62662998D01*
X156755516Y-62698011D01*
X156717936Y-62757573D01*
X156691459Y-62799536D01*
X156638192Y-62846474D01*
X156584897Y-62858300D01*
X155391129Y-62858300D01*
X155382888Y-62858030D01*
X155365956Y-62856920D01*
X155314840Y-62853570D01*
X155222473Y-62864502D01*
X155219251Y-62864840D01*
X155126689Y-62873346D01*
X155121122Y-62874916D01*
X155121118Y-62874917D01*
X155120994Y-62874952D01*
X155101611Y-62878808D01*
X155101474Y-62878825D01*
X155095733Y-62879504D01*
X155006949Y-62907072D01*
X155003865Y-62907986D01*
X154914336Y-62933235D01*
X154909159Y-62935788D01*
X154909149Y-62935792D01*
X154909024Y-62935854D01*
X154890663Y-62943179D01*
X154890540Y-62943217D01*
X154890536Y-62943219D01*
X154885021Y-62944931D01*
X154818406Y-62979979D01*
X154802775Y-62988203D01*
X154799844Y-62989696D01*
X154716453Y-63030820D01*
X154711707Y-63034364D01*
X154694995Y-63044908D01*
X154689759Y-63047663D01*
X154680438Y-63055011D01*
X154616752Y-63105217D01*
X154614150Y-63107213D01*
X154539667Y-63162833D01*
X154504911Y-63200432D01*
X154480994Y-63226305D01*
X154477565Y-63229871D01*
X153513149Y-64194288D01*
X153507130Y-64199925D01*
X153455857Y-64244890D01*
X153452285Y-64249421D01*
X153398289Y-64317914D01*
X153396214Y-64320476D01*
X153358962Y-64365268D01*
X153336798Y-64391917D01*
X153333973Y-64396961D01*
X153333902Y-64397087D01*
X153322929Y-64413509D01*
X153322838Y-64413624D01*
X153322835Y-64413629D01*
X153319263Y-64418160D01*
X153316573Y-64423273D01*
X153275985Y-64500417D01*
X153274411Y-64503317D01*
X153236366Y-64571251D01*
X153228990Y-64584421D01*
X153227090Y-64590020D01*
X153219284Y-64608187D01*
X153216531Y-64613420D01*
X153193324Y-64688160D01*
X153188969Y-64702184D01*
X153187950Y-64705320D01*
X153165148Y-64772495D01*
X153158069Y-64793348D01*
X153157218Y-64799216D01*
X153152861Y-64818470D01*
X153152815Y-64818617D01*
X153152814Y-64818623D01*
X153151103Y-64824133D01*
X153150425Y-64829861D01*
X153150424Y-64829866D01*
X153140177Y-64916450D01*
X153139747Y-64919715D01*
X153138668Y-64927158D01*
X153127276Y-65005724D01*
X153126409Y-65011702D01*
X153129139Y-65081188D01*
X153129803Y-65098086D01*
X153129900Y-65103033D01*
X153129900Y-72751671D01*
X153129630Y-72759912D01*
X153125170Y-72827960D01*
X153128177Y-72853360D01*
X153136099Y-72920295D01*
X153136440Y-72923549D01*
X153144946Y-73016111D01*
X153146516Y-73021678D01*
X153146517Y-73021682D01*
X153146552Y-73021806D01*
X153150408Y-73041189D01*
X153151104Y-73047067D01*
X153178672Y-73135851D01*
X153179586Y-73138935D01*
X153204835Y-73228464D01*
X153207388Y-73233641D01*
X153207392Y-73233651D01*
X153207454Y-73233776D01*
X153214779Y-73252137D01*
X153216531Y-73257779D01*
X153243905Y-73309808D01*
X153259803Y-73340025D01*
X153261296Y-73342956D01*
X153302420Y-73426347D01*
X153305964Y-73431093D01*
X153316508Y-73447805D01*
X153319263Y-73453041D01*
X153373824Y-73522252D01*
X153376817Y-73526048D01*
X153378813Y-73528650D01*
X153434433Y-73603133D01*
X153456978Y-73623973D01*
X153497917Y-73661817D01*
X153501483Y-73665247D01*
X154463487Y-74627251D01*
X154469124Y-74633269D01*
X154514090Y-74684543D01*
X154587083Y-74742085D01*
X154589619Y-74744138D01*
X154661117Y-74803602D01*
X154666161Y-74806427D01*
X154666287Y-74806498D01*
X154682709Y-74817471D01*
X154682824Y-74817562D01*
X154682829Y-74817565D01*
X154687360Y-74821137D01*
X154692473Y-74823827D01*
X154769617Y-74864415D01*
X154772498Y-74865979D01*
X154853621Y-74911410D01*
X154859088Y-74913266D01*
X154859097Y-74913270D01*
X154859231Y-74913315D01*
X154877387Y-74921116D01*
X154882620Y-74923869D01*
X154888134Y-74925581D01*
X154888136Y-74925582D01*
X154971375Y-74951429D01*
X154974511Y-74952448D01*
X155057077Y-74980475D01*
X155062548Y-74982332D01*
X155068410Y-74983182D01*
X155087687Y-74987544D01*
X155093333Y-74989297D01*
X155099063Y-74989975D01*
X155099067Y-74989976D01*
X155185640Y-75000222D01*
X155188911Y-75000653D01*
X155212987Y-75004144D01*
X155280902Y-75013991D01*
X155367286Y-75010597D01*
X155372233Y-75010500D01*
X155571585Y-75010500D01*
X155639706Y-75030502D01*
X155660291Y-75047017D01*
X155750156Y-75136101D01*
X155758954Y-75144823D01*
X155762716Y-75147581D01*
X155762719Y-75147584D01*
X155861766Y-75220208D01*
X155968775Y-75298670D01*
X155972910Y-75300846D01*
X155972914Y-75300848D01*
X156083304Y-75358927D01*
X156199033Y-75419815D01*
X156215971Y-75425730D01*
X156409016Y-75493144D01*
X156444667Y-75505594D01*
X156449260Y-75506466D01*
X156695693Y-75553253D01*
X156695696Y-75553253D01*
X156700282Y-75554124D01*
X156862537Y-75560499D01*
X156906107Y-75562211D01*
X156973390Y-75584872D01*
X156990255Y-75599018D01*
X157140504Y-75749268D01*
X157288489Y-75897253D01*
X157294124Y-75903270D01*
X157335277Y-75950196D01*
X157335281Y-75950200D01*
X157339090Y-75954543D01*
X157412142Y-76012132D01*
X157414633Y-76014150D01*
X157479793Y-76068343D01*
X157486116Y-76073602D01*
X157491151Y-76076422D01*
X157491157Y-76076426D01*
X157491287Y-76076499D01*
X157507713Y-76087474D01*
X157507818Y-76087557D01*
X157507822Y-76087560D01*
X157512360Y-76091137D01*
X157594622Y-76134417D01*
X157597495Y-76135977D01*
X157627758Y-76152925D01*
X157678621Y-76181410D01*
X157684220Y-76183310D01*
X157702387Y-76191116D01*
X157702505Y-76191178D01*
X157702508Y-76191179D01*
X157707620Y-76193869D01*
X157713138Y-76195582D01*
X157718475Y-76197793D01*
X157717504Y-76200136D01*
X157767602Y-76233444D01*
X157782769Y-76256090D01*
X157785387Y-76261099D01*
X157844772Y-76374691D01*
X157849427Y-76383596D01*
X157853458Y-76388539D01*
X157853459Y-76388540D01*
X157891577Y-76435277D01*
X157977891Y-76541109D01*
X157982831Y-76545138D01*
X158123072Y-76659515D01*
X158135404Y-76669573D01*
X158315530Y-76763741D01*
X158510913Y-76819766D01*
X158542545Y-76822589D01*
X158628391Y-76830251D01*
X158628397Y-76830251D01*
X158631184Y-76830500D01*
X160246816Y-76830500D01*
X160249603Y-76830251D01*
X160249609Y-76830251D01*
X160335455Y-76822589D01*
X160367087Y-76819766D01*
X160562470Y-76763741D01*
X160742596Y-76669573D01*
X160754929Y-76659515D01*
X160895169Y-76545138D01*
X160900109Y-76541109D01*
X160986423Y-76435277D01*
X161024541Y-76388540D01*
X161024542Y-76388539D01*
X161028573Y-76383596D01*
X161033229Y-76374691D01*
X161087048Y-76271744D01*
X161092613Y-76261099D01*
X162960109Y-76261099D01*
X162960204Y-76264729D01*
X162960204Y-76264731D01*
X162964860Y-76442531D01*
X162968638Y-76586832D01*
X162969149Y-76590422D01*
X162969149Y-76590423D01*
X162975411Y-76634420D01*
X163014550Y-76909427D01*
X163097236Y-77224607D01*
X163215600Y-77528195D01*
X163246817Y-77587154D01*
X163366134Y-77812503D01*
X163368073Y-77816166D01*
X163370130Y-77819159D01*
X163550577Y-78081711D01*
X163550583Y-78081718D01*
X163552634Y-78084703D01*
X163626422Y-78169288D01*
X163707739Y-78262503D01*
X163766837Y-78330249D01*
X164007842Y-78549547D01*
X164010784Y-78551661D01*
X164269505Y-78737571D01*
X164269511Y-78737575D01*
X164272456Y-78739691D01*
X164557171Y-78898161D01*
X164858213Y-79022857D01*
X164861707Y-79023852D01*
X164861709Y-79023853D01*
X165168091Y-79111129D01*
X165168096Y-79111130D01*
X165171592Y-79112126D01*
X165328886Y-79137884D01*
X165489573Y-79164197D01*
X165489580Y-79164198D01*
X165493154Y-79164783D01*
X165655896Y-79172458D01*
X165815011Y-79179962D01*
X165815012Y-79179962D01*
X165818638Y-79180133D01*
X165852331Y-79177836D01*
X166140112Y-79158217D01*
X166140119Y-79158216D01*
X166143729Y-79157970D01*
X166464118Y-79098590D01*
X166775559Y-79002778D01*
X166781806Y-79000036D01*
X166852218Y-78990965D01*
X166916358Y-79021403D01*
X166951664Y-79074592D01*
X166980186Y-79157898D01*
X166983499Y-79165779D01*
X167102664Y-79402713D01*
X167107020Y-79410079D01*
X167236347Y-79598250D01*
X167246601Y-79606594D01*
X167260342Y-79599448D01*
X168476658Y-78383132D01*
X169201408Y-78383132D01*
X169201539Y-78384965D01*
X169205790Y-78391580D01*
X170412730Y-79598520D01*
X170424939Y-79605187D01*
X170436439Y-79596497D01*
X170533831Y-79463913D01*
X170538418Y-79456685D01*
X170664962Y-79223621D01*
X170668530Y-79215827D01*
X170762271Y-78967750D01*
X170764748Y-78959544D01*
X170823954Y-78701038D01*
X170825294Y-78692577D01*
X170849031Y-78426616D01*
X170849277Y-78421677D01*
X170849666Y-78384485D01*
X170849523Y-78379519D01*
X170831362Y-78113123D01*
X170830201Y-78104649D01*
X170776419Y-77844944D01*
X170774120Y-77836709D01*
X170685588Y-77586705D01*
X170682191Y-77578854D01*
X170560550Y-77343178D01*
X170556122Y-77335866D01*
X170437031Y-77166417D01*
X170426509Y-77158037D01*
X170413121Y-77165089D01*
X169209022Y-78369188D01*
X169201408Y-78383132D01*
X168476658Y-78383132D01*
X170053604Y-76806186D01*
X170060795Y-76793017D01*
X170053473Y-76782780D01*
X170006233Y-76744115D01*
X169999261Y-76739160D01*
X169773122Y-76600582D01*
X169765552Y-76596624D01*
X169522704Y-76490022D01*
X169514644Y-76487120D01*
X169259592Y-76414467D01*
X169251214Y-76412685D01*
X168988656Y-76375318D01*
X168980111Y-76374691D01*
X168738923Y-76373428D01*
X168670908Y-76353070D01*
X168624697Y-76299172D01*
X168613792Y-76254683D01*
X168600740Y-76028315D01*
X168600739Y-76028310D01*
X168600531Y-76024695D01*
X168598691Y-76014150D01*
X168545133Y-75707274D01*
X168545131Y-75707267D01*
X168544509Y-75703701D01*
X168542119Y-75695630D01*
X168482139Y-75493144D01*
X168451964Y-75391274D01*
X168324122Y-75091554D01*
X168311218Y-75068930D01*
X168164470Y-74811655D01*
X168162679Y-74808515D01*
X168156360Y-74799912D01*
X167971914Y-74548820D01*
X167971912Y-74548818D01*
X167969774Y-74545907D01*
X167814198Y-74378486D01*
X167750436Y-74309870D01*
X167750435Y-74309869D01*
X167747965Y-74307211D01*
X167745205Y-74304854D01*
X167745199Y-74304848D01*
X167551170Y-74139132D01*
X167500190Y-74095591D01*
X167229734Y-73913852D01*
X167226525Y-73912196D01*
X167226517Y-73912191D01*
X166943402Y-73766065D01*
X166940182Y-73764403D01*
X166635372Y-73649225D01*
X166631851Y-73648341D01*
X166631846Y-73648339D01*
X166433463Y-73598509D01*
X166319343Y-73569844D01*
X166301015Y-73567431D01*
X165999889Y-73527787D01*
X165999881Y-73527786D01*
X165996285Y-73527313D01*
X165861187Y-73525191D01*
X165674122Y-73522252D01*
X165674118Y-73522252D01*
X165670480Y-73522195D01*
X165666866Y-73522556D01*
X165666860Y-73522556D01*
X165438901Y-73545310D01*
X165346245Y-73554558D01*
X165123460Y-73603133D01*
X165069125Y-73614980D01*
X165027879Y-73623973D01*
X165024452Y-73625146D01*
X165024446Y-73625148D01*
X164723033Y-73728345D01*
X164723028Y-73728347D01*
X164719602Y-73729520D01*
X164716334Y-73731079D01*
X164716326Y-73731082D01*
X164611619Y-73781025D01*
X164425498Y-73869800D01*
X164149467Y-74042954D01*
X164146633Y-74045224D01*
X164146628Y-74045228D01*
X164083765Y-74095591D01*
X163895168Y-74246686D01*
X163665970Y-74478297D01*
X163464911Y-74734716D01*
X163463018Y-74737805D01*
X163463016Y-74737808D01*
X163439844Y-74775622D01*
X163294657Y-75012545D01*
X163293132Y-75015830D01*
X163293130Y-75015834D01*
X163232528Y-75146390D01*
X163157465Y-75308101D01*
X163055152Y-75617468D01*
X163054416Y-75621023D01*
X163054415Y-75621026D01*
X162992213Y-75921385D01*
X162989074Y-75936543D01*
X162988751Y-75940165D01*
X162988750Y-75940170D01*
X162960556Y-76256091D01*
X162960109Y-76261099D01*
X161092613Y-76261099D01*
X161122741Y-76203470D01*
X161178766Y-76008087D01*
X161183933Y-75950196D01*
X161189251Y-75890609D01*
X161189251Y-75890603D01*
X161189500Y-75887816D01*
X161189500Y-74272184D01*
X161187225Y-74246686D01*
X161181589Y-74183545D01*
X161178766Y-74151913D01*
X161122741Y-73956530D01*
X161028573Y-73776404D01*
X161011117Y-73755000D01*
X160955763Y-73687130D01*
X160916753Y-73639298D01*
X160889199Y-73573867D01*
X160901394Y-73503926D01*
X160908425Y-73491500D01*
X160930245Y-73457578D01*
X160981683Y-73377608D01*
X161088544Y-73140385D01*
X161113308Y-73052579D01*
X161157898Y-72894476D01*
X161157899Y-72894473D01*
X161159168Y-72889972D01*
X161173006Y-72781193D01*
X161191604Y-72635001D01*
X161191604Y-72634997D01*
X161192002Y-72631871D01*
X161192777Y-72602300D01*
X161194325Y-72543160D01*
X161194408Y-72540000D01*
X161175126Y-72280534D01*
X161117705Y-72026768D01*
X161060310Y-71879177D01*
X161025098Y-71788630D01*
X161025097Y-71788628D01*
X161023405Y-71784277D01*
X160993824Y-71732520D01*
X160896618Y-71562446D01*
X160894299Y-71558388D01*
X160772988Y-71404505D01*
X160746523Y-71338626D01*
X160759876Y-71268897D01*
X160808808Y-71217456D01*
X160871938Y-71200500D01*
X160942871Y-71200500D01*
X160951113Y-71200770D01*
X161019160Y-71205230D01*
X161111527Y-71194298D01*
X161114749Y-71193960D01*
X161207311Y-71185454D01*
X161212878Y-71183884D01*
X161212882Y-71183883D01*
X161213006Y-71183848D01*
X161232389Y-71179992D01*
X161232529Y-71179975D01*
X161238267Y-71179296D01*
X161327059Y-71151726D01*
X161330135Y-71150814D01*
X161419664Y-71125565D01*
X161424841Y-71123012D01*
X161424851Y-71123008D01*
X161424976Y-71122946D01*
X161443337Y-71115621D01*
X161443460Y-71115583D01*
X161443464Y-71115581D01*
X161448979Y-71113869D01*
X161531234Y-71070593D01*
X161534165Y-71069099D01*
X161617547Y-71027980D01*
X161622293Y-71024436D01*
X161639005Y-71013892D01*
X161644241Y-71011137D01*
X161717263Y-70953572D01*
X161719865Y-70951575D01*
X161722785Y-70949395D01*
X161794333Y-70895967D01*
X161853018Y-70832482D01*
X161856447Y-70828917D01*
X162767651Y-69917713D01*
X162773669Y-69912076D01*
X162820596Y-69870922D01*
X162824943Y-69867110D01*
X162882500Y-69794099D01*
X162884538Y-69791581D01*
X162944002Y-69720083D01*
X162946898Y-69714913D01*
X162957871Y-69698491D01*
X162957962Y-69698376D01*
X162957965Y-69698371D01*
X162961537Y-69693840D01*
X163004815Y-69611583D01*
X163006389Y-69608683D01*
X163022825Y-69579336D01*
X163051810Y-69527579D01*
X163053666Y-69522112D01*
X163053670Y-69522103D01*
X163053715Y-69521969D01*
X163061516Y-69503813D01*
X163061580Y-69503691D01*
X163064269Y-69498580D01*
X163082322Y-69440441D01*
X163091829Y-69409825D01*
X163092848Y-69406689D01*
X163120875Y-69324123D01*
X163120875Y-69324122D01*
X163122732Y-69318652D01*
X163123582Y-69312790D01*
X163127944Y-69293513D01*
X163129697Y-69287867D01*
X163140548Y-69196188D01*
X163140622Y-69195560D01*
X163141053Y-69192289D01*
X163144544Y-69168213D01*
X163154391Y-69100298D01*
X163150997Y-69013914D01*
X163150900Y-69008967D01*
X163150900Y-66475964D01*
X163170902Y-66407843D01*
X163224558Y-66361350D01*
X163294832Y-66351246D01*
X163359412Y-66380740D01*
X163380740Y-66404597D01*
X163532079Y-66624796D01*
X163552634Y-66654703D01*
X163623782Y-66736262D01*
X163750985Y-66882077D01*
X163766837Y-66900249D01*
X164007842Y-67119547D01*
X164021171Y-67129125D01*
X164269505Y-67307571D01*
X164269511Y-67307575D01*
X164272456Y-67309691D01*
X164557171Y-67468161D01*
X164858213Y-67592857D01*
X164861707Y-67593852D01*
X164861709Y-67593853D01*
X165168091Y-67681129D01*
X165168096Y-67681130D01*
X165171592Y-67682126D01*
X165328886Y-67707884D01*
X165489573Y-67734197D01*
X165489580Y-67734198D01*
X165493154Y-67734783D01*
X165655896Y-67742458D01*
X165815011Y-67749962D01*
X165815012Y-67749962D01*
X165818638Y-67750133D01*
X165833585Y-67749114D01*
X166140112Y-67728217D01*
X166140119Y-67728216D01*
X166143729Y-67727970D01*
X166464118Y-67668590D01*
X166775559Y-67572778D01*
X166917225Y-67510591D01*
X167070592Y-67443268D01*
X167070597Y-67443265D01*
X167073924Y-67441805D01*
X167355257Y-67277407D01*
X167564619Y-67120214D01*
X167612924Y-67083946D01*
X167612928Y-67083943D01*
X167615831Y-67081763D01*
X167852191Y-66857465D01*
X168061205Y-66607488D01*
X168081609Y-66576426D01*
X168238114Y-66338170D01*
X168238119Y-66338161D01*
X168240101Y-66335144D01*
X168351500Y-66113653D01*
X168384883Y-66047279D01*
X168384886Y-66047271D01*
X168386510Y-66044043D01*
X168414007Y-65968904D01*
X168497242Y-65741454D01*
X168497243Y-65741450D01*
X168498490Y-65738043D01*
X168499335Y-65734521D01*
X168499338Y-65734513D01*
X168573710Y-65424730D01*
X168573711Y-65424726D01*
X168574557Y-65421201D01*
X168577146Y-65399808D01*
X168613367Y-65100494D01*
X168613368Y-65100487D01*
X168613703Y-65097715D01*
X168614223Y-65081188D01*
X168615760Y-65032253D01*
X168617689Y-64970869D01*
X168639821Y-64903411D01*
X168694910Y-64858626D01*
X168745606Y-64848843D01*
X168938045Y-64851867D01*
X168946596Y-64851418D01*
X169209883Y-64819557D01*
X169218284Y-64817955D01*
X169474824Y-64750653D01*
X169482926Y-64747926D01*
X169727949Y-64646434D01*
X169735617Y-64642628D01*
X169964598Y-64508822D01*
X169971679Y-64504009D01*
X170051655Y-64441301D01*
X170060125Y-64429442D01*
X170053608Y-64417818D01*
X168478922Y-62843132D01*
X169201408Y-62843132D01*
X169201539Y-62844965D01*
X169205790Y-62851580D01*
X170412730Y-64058520D01*
X170424939Y-64065187D01*
X170436439Y-64056497D01*
X170533831Y-63923913D01*
X170538418Y-63916685D01*
X170664962Y-63683621D01*
X170668530Y-63675827D01*
X170762271Y-63427750D01*
X170764748Y-63419544D01*
X170823954Y-63161038D01*
X170825294Y-63152577D01*
X170849031Y-62886616D01*
X170849277Y-62881677D01*
X170849666Y-62844485D01*
X170849523Y-62839519D01*
X170831362Y-62573123D01*
X170830201Y-62564649D01*
X170776419Y-62304944D01*
X170774120Y-62296709D01*
X170685588Y-62046705D01*
X170682191Y-62038854D01*
X170560550Y-61803178D01*
X170556122Y-61795866D01*
X170437031Y-61626417D01*
X170426509Y-61618037D01*
X170413121Y-61625089D01*
X169209022Y-62829188D01*
X169201408Y-62843132D01*
X168478922Y-62843132D01*
X167260814Y-61625024D01*
X167248804Y-61618466D01*
X167237064Y-61627434D01*
X167128935Y-61777911D01*
X167124418Y-61785196D01*
X167000325Y-62019567D01*
X166996839Y-62027395D01*
X166935013Y-62196344D01*
X166892819Y-62253442D01*
X166826454Y-62278664D01*
X166772150Y-62270909D01*
X166635372Y-62219225D01*
X166631851Y-62218341D01*
X166631846Y-62218339D01*
X166466877Y-62176902D01*
X166319343Y-62139844D01*
X166301015Y-62137431D01*
X165999889Y-62097787D01*
X165999881Y-62097786D01*
X165996285Y-62097313D01*
X165861187Y-62095191D01*
X165674122Y-62092252D01*
X165674118Y-62092252D01*
X165670480Y-62092195D01*
X165666866Y-62092556D01*
X165666860Y-62092556D01*
X165469545Y-62112251D01*
X165346245Y-62124558D01*
X165207777Y-62154749D01*
X165033695Y-62192705D01*
X165027879Y-62193973D01*
X165024452Y-62195146D01*
X165024446Y-62195148D01*
X164723033Y-62298345D01*
X164723028Y-62298347D01*
X164719602Y-62299520D01*
X164709227Y-62304469D01*
X164705454Y-62306268D01*
X164635358Y-62317540D01*
X164570296Y-62289125D01*
X164530923Y-62230046D01*
X164529742Y-62159060D01*
X164562117Y-62103446D01*
X164969350Y-61696213D01*
X165031662Y-61662187D01*
X165065587Y-61659511D01*
X165087859Y-61660776D01*
X165087867Y-61660776D01*
X165092536Y-61661041D01*
X165276030Y-61644180D01*
X165346970Y-61637662D01*
X165346972Y-61637662D01*
X165351626Y-61637234D01*
X165604351Y-61575393D01*
X165620413Y-61568822D01*
X165840834Y-61478645D01*
X165840840Y-61478642D01*
X165845159Y-61476875D01*
X166068761Y-61343845D01*
X166072375Y-61340892D01*
X166072381Y-61340888D01*
X166178114Y-61254500D01*
X167613584Y-61254500D01*
X167619980Y-61265770D01*
X168824188Y-62469978D01*
X168838132Y-62477592D01*
X168839965Y-62477461D01*
X168846580Y-62473210D01*
X170053604Y-61266186D01*
X170060795Y-61253017D01*
X170053473Y-61242780D01*
X170006233Y-61204115D01*
X169999261Y-61199160D01*
X169773122Y-61060582D01*
X169765552Y-61056624D01*
X169522704Y-60950022D01*
X169514644Y-60947120D01*
X169259592Y-60874467D01*
X169251214Y-60872685D01*
X168988656Y-60835318D01*
X168980111Y-60834691D01*
X168714908Y-60833302D01*
X168706374Y-60833839D01*
X168443433Y-60868456D01*
X168435035Y-60870149D01*
X168179238Y-60940127D01*
X168171143Y-60942946D01*
X167927199Y-61046997D01*
X167919577Y-61050881D01*
X167692013Y-61187075D01*
X167684981Y-61191962D01*
X167622053Y-61242377D01*
X167613584Y-61254500D01*
X166178114Y-61254500D01*
X166192952Y-61242377D01*
X166236960Y-61206421D01*
X167716476Y-59726905D01*
X167778788Y-59692879D01*
X167805571Y-59690000D01*
X169835613Y-59690000D01*
X169903734Y-59710002D01*
X169945815Y-59754914D01*
X169970616Y-59799657D01*
X169976825Y-59806901D01*
X169980336Y-59810997D01*
X169991759Y-59826605D01*
X169999625Y-59839292D01*
X170004009Y-59843928D01*
X170050511Y-59893103D01*
X170054630Y-59897678D01*
X170062943Y-59907377D01*
X170102824Y-59953906D01*
X170114631Y-59963064D01*
X170128947Y-59976046D01*
X170139210Y-59986899D01*
X170144440Y-59990561D01*
X170144441Y-59990562D01*
X170199881Y-60029382D01*
X170204836Y-60033035D01*
X170215961Y-60041664D01*
X170263348Y-60078421D01*
X170269079Y-60081241D01*
X170276745Y-60085014D01*
X170293382Y-60094853D01*
X170300392Y-60099761D01*
X170300395Y-60099763D01*
X170305624Y-60103424D01*
X170311478Y-60105957D01*
X170311481Y-60105959D01*
X170373583Y-60132833D01*
X170379171Y-60135415D01*
X170439899Y-60165296D01*
X170445630Y-60168116D01*
X170455735Y-60170748D01*
X170460090Y-60171883D01*
X170478362Y-60178174D01*
X170492071Y-60184106D01*
X170498310Y-60185410D01*
X170498315Y-60185411D01*
X170564548Y-60199248D01*
X170570540Y-60200653D01*
X170627678Y-60215536D01*
X170642225Y-60219325D01*
X170648595Y-60219659D01*
X170648596Y-60219659D01*
X170657143Y-60220107D01*
X170676309Y-60222596D01*
X170690932Y-60225651D01*
X170695769Y-60225904D01*
X170695773Y-60225905D01*
X170695832Y-60225908D01*
X170697592Y-60226000D01*
X170766303Y-60226000D01*
X170772897Y-60226173D01*
X170838721Y-60229623D01*
X170838725Y-60229623D01*
X170845102Y-60229957D01*
X170856301Y-60228263D01*
X170861898Y-60227417D01*
X170880739Y-60226000D01*
X174470000Y-60226000D01*
X174538121Y-60246002D01*
X174584614Y-60299658D01*
X174596000Y-60352000D01*
X174596000Y-80874000D01*
X174575998Y-80942121D01*
X174522342Y-80988614D01*
X174470000Y-81000000D01*
X101350194Y-81000000D01*
X101282073Y-80979998D01*
X101235580Y-80926342D01*
X101225476Y-80856068D01*
X101254970Y-80791488D01*
X101286624Y-80765212D01*
X101542887Y-80615465D01*
X101546785Y-80612991D01*
X101960501Y-80328652D01*
X101964205Y-80325901D01*
X102184446Y-80149454D01*
X120241618Y-80149454D01*
X120248673Y-80159427D01*
X120279679Y-80185351D01*
X120286598Y-80190379D01*
X120511272Y-80331315D01*
X120518807Y-80335356D01*
X120760520Y-80444494D01*
X120768551Y-80447480D01*
X121022832Y-80522802D01*
X121031184Y-80524669D01*
X121293340Y-80564784D01*
X121301874Y-80565500D01*
X121567045Y-80569667D01*
X121575596Y-80569218D01*
X121838883Y-80537357D01*
X121847284Y-80535755D01*
X122103824Y-80468453D01*
X122111926Y-80465726D01*
X122356949Y-80364234D01*
X122364617Y-80360428D01*
X122593598Y-80226622D01*
X122600679Y-80221809D01*
X122680655Y-80159101D01*
X122687545Y-80149454D01*
X138275618Y-80149454D01*
X138282673Y-80159427D01*
X138313679Y-80185351D01*
X138320598Y-80190379D01*
X138545272Y-80331315D01*
X138552807Y-80335356D01*
X138794520Y-80444494D01*
X138802551Y-80447480D01*
X139056832Y-80522802D01*
X139065184Y-80524669D01*
X139327340Y-80564784D01*
X139335874Y-80565500D01*
X139601045Y-80569667D01*
X139609596Y-80569218D01*
X139872883Y-80537357D01*
X139881284Y-80535755D01*
X140137824Y-80468453D01*
X140145926Y-80465726D01*
X140390949Y-80364234D01*
X140398617Y-80360428D01*
X140627598Y-80226622D01*
X140634679Y-80221809D01*
X140714655Y-80159101D01*
X140723125Y-80147242D01*
X140716608Y-80135618D01*
X140552644Y-79971654D01*
X167612618Y-79971654D01*
X167619673Y-79981627D01*
X167650679Y-80007551D01*
X167657598Y-80012579D01*
X167882272Y-80153515D01*
X167889807Y-80157556D01*
X168131520Y-80266694D01*
X168139551Y-80269680D01*
X168393832Y-80345002D01*
X168402184Y-80346869D01*
X168664340Y-80386984D01*
X168672874Y-80387700D01*
X168938045Y-80391867D01*
X168946596Y-80391418D01*
X169209883Y-80359557D01*
X169218284Y-80357955D01*
X169474824Y-80290653D01*
X169482926Y-80287926D01*
X169727949Y-80186434D01*
X169735617Y-80182628D01*
X169964598Y-80048822D01*
X169971679Y-80044009D01*
X170051655Y-79981301D01*
X170060125Y-79969442D01*
X170053608Y-79957818D01*
X168849812Y-78754022D01*
X168835868Y-78746408D01*
X168834035Y-78746539D01*
X168827420Y-78750790D01*
X167619910Y-79958300D01*
X167612618Y-79971654D01*
X140552644Y-79971654D01*
X139512812Y-78931822D01*
X139498868Y-78924208D01*
X139497035Y-78924339D01*
X139490420Y-78928590D01*
X138282910Y-80136100D01*
X138275618Y-80149454D01*
X122687545Y-80149454D01*
X122689125Y-80147242D01*
X122682608Y-80135618D01*
X121478812Y-78931822D01*
X121464868Y-78924208D01*
X121463035Y-78924339D01*
X121456420Y-78928590D01*
X120248910Y-80136100D01*
X120241618Y-80149454D01*
X102184446Y-80149454D01*
X102355983Y-80012027D01*
X102359485Y-80009004D01*
X102529449Y-79851064D01*
X102537568Y-79837410D01*
X102537547Y-79836804D01*
X102532314Y-79828324D01*
X101761001Y-79057011D01*
X100875704Y-78171713D01*
X100349616Y-77645626D01*
X97853612Y-75149622D01*
X97839668Y-75142008D01*
X97837835Y-75142139D01*
X97831220Y-75146390D01*
X95331985Y-77645625D01*
X94446687Y-78530922D01*
X93920600Y-79057010D01*
X93149294Y-79828316D01*
X93141804Y-79842033D01*
X93148326Y-79851461D01*
X93488680Y-80148369D01*
X93492252Y-80151262D01*
X93893697Y-80452675D01*
X93897508Y-80455324D01*
X94319932Y-80726516D01*
X94323911Y-80728869D01*
X94387268Y-80763269D01*
X94437589Y-80813351D01*
X94452846Y-80882689D01*
X94428194Y-80949268D01*
X94371460Y-80991950D01*
X94327146Y-81000000D01*
X91722000Y-81000000D01*
X91653879Y-80979998D01*
X91607386Y-80926342D01*
X91596000Y-80874000D01*
X91596000Y-78253777D01*
X91616002Y-78185656D01*
X91669658Y-78139163D01*
X91739932Y-78129059D01*
X91804512Y-78158553D01*
X91833354Y-78194817D01*
X91853020Y-78231958D01*
X91855348Y-78235990D01*
X92122101Y-78661231D01*
X92124692Y-78665044D01*
X92421895Y-79069637D01*
X92424757Y-79073247D01*
X92750783Y-79454975D01*
X92753907Y-79458372D01*
X92764497Y-79469073D01*
X92778398Y-79476758D01*
X92780057Y-79476648D01*
X92786939Y-79472251D01*
X93561389Y-78697801D01*
X94446687Y-77812504D01*
X94518026Y-77741165D01*
X94972774Y-77286416D01*
X97468778Y-74790412D01*
X97476392Y-74776468D01*
X97476261Y-74774635D01*
X97472010Y-74768020D01*
X94972775Y-72268785D01*
X94087478Y-71383487D01*
X93561390Y-70857400D01*
X92792207Y-70088217D01*
X92778263Y-70080603D01*
X92777306Y-70080671D01*
X92769497Y-70085835D01*
X92657004Y-70204378D01*
X92653938Y-70207856D01*
X92335983Y-70596321D01*
X92333196Y-70599993D01*
X92044539Y-71010710D01*
X92042019Y-71014591D01*
X91830116Y-71368654D01*
X91777970Y-71416834D01*
X91708054Y-71429174D01*
X91642566Y-71401755D01*
X91602297Y-71343283D01*
X91596000Y-71303948D01*
X91596000Y-60352000D01*
X91616002Y-60283879D01*
X91669658Y-60237386D01*
X91722000Y-60226000D01*
X95366303Y-60226000D01*
X95372897Y-60226173D01*
X95438721Y-60229623D01*
X95438725Y-60229623D01*
X95445102Y-60229957D01*
X95451415Y-60229002D01*
X95451420Y-60229002D01*
X95518322Y-60218883D01*
X95524432Y-60218111D01*
X95591767Y-60211272D01*
X95591769Y-60211272D01*
X95598115Y-60210627D01*
X95612369Y-60206160D01*
X95631201Y-60201812D01*
X95640668Y-60200380D01*
X95711012Y-60209976D01*
X95765002Y-60256079D01*
X95785500Y-60324965D01*
X95785500Y-62753244D01*
X95785673Y-62755569D01*
X95785673Y-62755575D01*
X95799162Y-62937082D01*
X95799874Y-62946666D01*
X95857295Y-63200432D01*
X95858987Y-63204784D01*
X95858988Y-63204786D01*
X95945695Y-63427750D01*
X95951595Y-63442923D01*
X95953912Y-63446977D01*
X95953913Y-63446979D01*
X95974224Y-63482516D01*
X96080701Y-63668812D01*
X96241777Y-63873136D01*
X96431286Y-64051408D01*
X96583252Y-64156831D01*
X96637246Y-64194288D01*
X96645063Y-64199711D01*
X96649253Y-64201777D01*
X96649256Y-64201779D01*
X96874225Y-64312721D01*
X96874228Y-64312722D01*
X96878413Y-64314786D01*
X96882856Y-64316208D01*
X96882858Y-64316209D01*
X97040841Y-64366780D01*
X97091523Y-64397687D01*
X101097728Y-68403892D01*
X101131754Y-68466204D01*
X101126689Y-68537019D01*
X101084142Y-68593855D01*
X101017622Y-68618666D01*
X100955582Y-68607275D01*
X100521708Y-68405877D01*
X100517483Y-68404101D01*
X100047862Y-68226646D01*
X100043506Y-68225180D01*
X99562178Y-68082604D01*
X99557691Y-68081452D01*
X99067204Y-67974509D01*
X99062678Y-67973695D01*
X98565671Y-67902960D01*
X98561084Y-67902478D01*
X98060251Y-67868335D01*
X98055616Y-67868189D01*
X97553636Y-67870818D01*
X97549022Y-67871011D01*
X97048556Y-67910398D01*
X97043973Y-67910929D01*
X96547745Y-67986862D01*
X96543219Y-67987725D01*
X96053869Y-68099801D01*
X96049427Y-68100992D01*
X95569602Y-68248605D01*
X95565252Y-68250120D01*
X95097525Y-68432480D01*
X95093308Y-68434305D01*
X94640182Y-68650434D01*
X94636123Y-68652556D01*
X94200034Y-68901297D01*
X94196138Y-68903712D01*
X93779443Y-69183720D01*
X93775732Y-69186416D01*
X93380658Y-69496194D01*
X93377162Y-69499148D01*
X93152017Y-69704014D01*
X93143756Y-69717581D01*
X93143762Y-69717834D01*
X93149262Y-69726852D01*
X93920599Y-70498189D01*
X94374505Y-70952096D01*
X94446686Y-71024277D01*
X95331984Y-71909574D01*
X100708825Y-77286415D01*
X101163573Y-77741164D01*
X101234912Y-77812503D01*
X102120210Y-78697800D01*
X102889119Y-79466709D01*
X102903063Y-79474323D01*
X102903666Y-79474280D01*
X102911949Y-79468740D01*
X103072204Y-79296285D01*
X103075227Y-79292783D01*
X103389101Y-78901005D01*
X103391852Y-78897301D01*
X103676191Y-78483585D01*
X103678665Y-78479687D01*
X103931944Y-78046250D01*
X103934118Y-78042194D01*
X104154971Y-77591379D01*
X104156852Y-77587154D01*
X104344090Y-77121386D01*
X104345657Y-77117032D01*
X104498279Y-76638805D01*
X104499521Y-76634355D01*
X104616713Y-76146216D01*
X104617625Y-76141692D01*
X104698751Y-75646286D01*
X104699330Y-75641705D01*
X104743983Y-75141371D01*
X104744212Y-75137407D01*
X104753582Y-74779570D01*
X104753561Y-74775622D01*
X104735154Y-74273633D01*
X104734815Y-74269015D01*
X104718337Y-74119756D01*
X104730743Y-74049852D01*
X104778973Y-73997752D01*
X104847714Y-73979998D01*
X104915141Y-74002226D01*
X104932671Y-74016835D01*
X107755280Y-76839443D01*
X107760917Y-76845461D01*
X107805890Y-76896743D01*
X107810421Y-76900315D01*
X107878914Y-76954311D01*
X107881476Y-76956386D01*
X107943897Y-77008300D01*
X107952917Y-77015802D01*
X107957961Y-77018627D01*
X107958087Y-77018698D01*
X107974509Y-77029671D01*
X107974624Y-77029762D01*
X107974629Y-77029765D01*
X107979160Y-77033337D01*
X107984273Y-77036027D01*
X108061417Y-77076615D01*
X108064298Y-77078179D01*
X108145421Y-77123610D01*
X108151020Y-77125510D01*
X108169187Y-77133316D01*
X108169265Y-77133357D01*
X108174420Y-77136069D01*
X108203853Y-77145208D01*
X108263184Y-77163631D01*
X108266320Y-77164650D01*
X108348879Y-77192675D01*
X108348884Y-77192676D01*
X108354348Y-77194531D01*
X108360216Y-77195382D01*
X108379470Y-77199739D01*
X108379617Y-77199785D01*
X108379623Y-77199786D01*
X108385133Y-77201497D01*
X108390861Y-77202175D01*
X108390866Y-77202176D01*
X108464606Y-77210903D01*
X108477456Y-77212424D01*
X108480715Y-77212853D01*
X108496973Y-77215210D01*
X108566989Y-77225363D01*
X108566993Y-77225363D01*
X108572702Y-77226191D01*
X108659086Y-77222797D01*
X108664033Y-77222700D01*
X111258871Y-77222700D01*
X111267113Y-77222970D01*
X111335160Y-77227430D01*
X111427527Y-77216498D01*
X111430749Y-77216160D01*
X111523311Y-77207654D01*
X111528878Y-77206084D01*
X111528882Y-77206083D01*
X111529006Y-77206048D01*
X111548389Y-77202192D01*
X111548529Y-77202175D01*
X111554267Y-77201496D01*
X111643059Y-77173926D01*
X111646135Y-77173014D01*
X111735664Y-77147765D01*
X111740841Y-77145212D01*
X111740851Y-77145208D01*
X111740976Y-77145146D01*
X111759337Y-77137821D01*
X111759460Y-77137783D01*
X111759464Y-77137781D01*
X111764979Y-77136069D01*
X111847234Y-77092793D01*
X111850165Y-77091299D01*
X111851299Y-77090740D01*
X111933547Y-77050180D01*
X111938293Y-77046636D01*
X111955005Y-77036092D01*
X111960241Y-77033337D01*
X111964779Y-77029760D01*
X111966523Y-77028627D01*
X112035147Y-77008300D01*
X112875816Y-77008300D01*
X112878603Y-77008051D01*
X112878609Y-77008051D01*
X112964455Y-77000389D01*
X112996087Y-76997566D01*
X113191470Y-76941541D01*
X113371596Y-76847373D01*
X113392285Y-76830500D01*
X113524169Y-76722938D01*
X113529109Y-76718909D01*
X113544147Y-76700470D01*
X113653541Y-76566340D01*
X113653542Y-76566339D01*
X113657573Y-76561396D01*
X113662229Y-76552491D01*
X113678450Y-76521462D01*
X113721613Y-76438899D01*
X115589109Y-76438899D01*
X115589204Y-76442529D01*
X115589204Y-76442531D01*
X115596546Y-76722938D01*
X115597638Y-76764632D01*
X115643550Y-77087227D01*
X115726236Y-77402407D01*
X115844600Y-77705995D01*
X115997073Y-77993966D01*
X115999130Y-77996959D01*
X116179577Y-78259511D01*
X116179583Y-78259518D01*
X116181634Y-78262503D01*
X116395837Y-78508049D01*
X116636842Y-78727347D01*
X116639784Y-78729461D01*
X116898505Y-78915371D01*
X116898511Y-78915375D01*
X116901456Y-78917491D01*
X117186171Y-79075961D01*
X117487213Y-79200657D01*
X117490707Y-79201652D01*
X117490709Y-79201653D01*
X117797091Y-79288929D01*
X117797096Y-79288930D01*
X117800592Y-79289926D01*
X117933939Y-79311762D01*
X118118573Y-79341997D01*
X118118580Y-79341998D01*
X118122154Y-79342583D01*
X118284896Y-79350258D01*
X118444011Y-79357762D01*
X118444012Y-79357762D01*
X118447638Y-79357933D01*
X118453449Y-79357537D01*
X118769112Y-79336017D01*
X118769119Y-79336016D01*
X118772729Y-79335770D01*
X119093118Y-79276390D01*
X119404559Y-79180578D01*
X119410806Y-79177836D01*
X119481218Y-79168765D01*
X119545358Y-79199203D01*
X119580664Y-79252392D01*
X119609186Y-79335698D01*
X119612499Y-79343579D01*
X119731664Y-79580513D01*
X119736020Y-79587879D01*
X119865347Y-79776050D01*
X119875601Y-79784394D01*
X119889342Y-79777248D01*
X121105658Y-78560932D01*
X121830408Y-78560932D01*
X121830539Y-78562765D01*
X121834790Y-78569380D01*
X123041730Y-79776320D01*
X123053939Y-79782987D01*
X123065439Y-79774297D01*
X123162831Y-79641713D01*
X123167418Y-79634485D01*
X123293962Y-79401421D01*
X123297530Y-79393627D01*
X123391271Y-79145550D01*
X123393748Y-79137344D01*
X123452954Y-78878838D01*
X123454294Y-78870377D01*
X123478031Y-78604416D01*
X123478277Y-78599477D01*
X123478666Y-78562285D01*
X123478523Y-78557319D01*
X123460362Y-78290923D01*
X123459201Y-78282449D01*
X123405419Y-78022744D01*
X123403120Y-78014509D01*
X123314588Y-77764505D01*
X123311191Y-77756654D01*
X123189550Y-77520978D01*
X123185122Y-77513666D01*
X123066031Y-77344217D01*
X123055509Y-77335837D01*
X123042121Y-77342889D01*
X121838022Y-78546988D01*
X121830408Y-78560932D01*
X121105658Y-78560932D01*
X122682604Y-76983986D01*
X122689795Y-76970817D01*
X122682473Y-76960580D01*
X122635233Y-76921915D01*
X122628261Y-76916960D01*
X122402122Y-76778382D01*
X122394552Y-76774424D01*
X122151704Y-76667822D01*
X122143644Y-76664920D01*
X121888592Y-76592267D01*
X121880214Y-76590485D01*
X121617656Y-76553118D01*
X121609111Y-76552491D01*
X121367923Y-76551228D01*
X121299908Y-76530870D01*
X121253697Y-76476972D01*
X121242792Y-76432483D01*
X121229740Y-76206115D01*
X121229739Y-76206110D01*
X121229531Y-76202495D01*
X121228026Y-76193869D01*
X121174133Y-75885074D01*
X121174131Y-75885067D01*
X121173509Y-75881501D01*
X121159884Y-75835501D01*
X121115631Y-75686107D01*
X121080964Y-75569074D01*
X120953122Y-75269354D01*
X120928788Y-75226691D01*
X120793470Y-74989455D01*
X120791679Y-74986315D01*
X120781411Y-74972336D01*
X120600914Y-74726620D01*
X120600912Y-74726618D01*
X120598774Y-74723707D01*
X120376965Y-74485011D01*
X120374205Y-74482654D01*
X120374199Y-74482648D01*
X120131946Y-74275745D01*
X120129190Y-74273391D01*
X119858734Y-74091652D01*
X119855525Y-74089996D01*
X119855517Y-74089991D01*
X119572402Y-73943865D01*
X119569182Y-73942203D01*
X119264372Y-73827025D01*
X119260851Y-73826141D01*
X119260846Y-73826139D01*
X119043158Y-73771460D01*
X118948343Y-73747644D01*
X118930015Y-73745231D01*
X118628889Y-73705587D01*
X118628881Y-73705586D01*
X118625285Y-73705113D01*
X118490187Y-73702991D01*
X118303122Y-73700052D01*
X118303118Y-73700052D01*
X118299480Y-73699995D01*
X118295866Y-73700356D01*
X118295860Y-73700356D01*
X118067901Y-73723110D01*
X117975245Y-73732358D01*
X117656879Y-73801773D01*
X117653452Y-73802946D01*
X117653446Y-73802948D01*
X117352033Y-73906145D01*
X117352028Y-73906147D01*
X117348602Y-73907320D01*
X117345334Y-73908879D01*
X117345326Y-73908882D01*
X117238453Y-73959858D01*
X117054498Y-74047600D01*
X116778467Y-74220754D01*
X116775633Y-74223024D01*
X116775628Y-74223028D01*
X116670551Y-74307211D01*
X116524168Y-74424486D01*
X116521615Y-74427066D01*
X116300523Y-74650486D01*
X116294970Y-74656097D01*
X116244032Y-74721061D01*
X116108920Y-74893375D01*
X116093911Y-74912516D01*
X116092018Y-74915605D01*
X116092016Y-74915608D01*
X116047908Y-74987586D01*
X115923657Y-75190345D01*
X115922132Y-75193630D01*
X115922130Y-75193634D01*
X115868997Y-75308101D01*
X115786465Y-75485901D01*
X115684152Y-75795268D01*
X115683416Y-75798823D01*
X115683415Y-75798826D01*
X115618812Y-76110779D01*
X115618074Y-76114343D01*
X115617751Y-76117965D01*
X115617750Y-76117970D01*
X115589680Y-76432497D01*
X115589109Y-76438899D01*
X113721613Y-76438899D01*
X113751741Y-76381270D01*
X113807766Y-76185887D01*
X113812361Y-76134403D01*
X113818251Y-76068409D01*
X113818251Y-76068403D01*
X113818500Y-76065616D01*
X113818500Y-74449984D01*
X113816225Y-74424486D01*
X113808299Y-74335686D01*
X113807766Y-74329713D01*
X113751741Y-74134330D01*
X113657573Y-73954204D01*
X113626310Y-73915871D01*
X113581819Y-73861320D01*
X113545753Y-73817098D01*
X113518199Y-73751667D01*
X113530394Y-73681726D01*
X113537425Y-73669300D01*
X113542239Y-73661817D01*
X113610683Y-73555408D01*
X113717544Y-73318185D01*
X113735111Y-73255899D01*
X113786898Y-73072276D01*
X113786899Y-73072273D01*
X113788168Y-73067772D01*
X113806512Y-72923576D01*
X113820604Y-72812801D01*
X113820604Y-72812797D01*
X113821002Y-72809671D01*
X113823408Y-72717800D01*
X113804126Y-72458334D01*
X113746705Y-72204568D01*
X113745012Y-72200214D01*
X113654098Y-71966430D01*
X113654097Y-71966428D01*
X113652405Y-71962077D01*
X113523299Y-71736188D01*
X113362223Y-71531864D01*
X113359811Y-71529595D01*
X113328693Y-71466183D01*
X113336840Y-71395655D01*
X113358132Y-71361714D01*
X113426766Y-71283451D01*
X113469931Y-71234231D01*
X113488829Y-71204852D01*
X113608155Y-71019338D01*
X113610683Y-71015408D01*
X113717544Y-70778185D01*
X113745857Y-70677794D01*
X113786898Y-70532276D01*
X113786899Y-70532273D01*
X113788168Y-70527772D01*
X113806256Y-70385588D01*
X113820604Y-70272801D01*
X113820604Y-70272797D01*
X113821002Y-70269671D01*
X113823408Y-70177800D01*
X113814591Y-70059150D01*
X113804472Y-69922986D01*
X113804471Y-69922982D01*
X113804126Y-69918334D01*
X113746705Y-69664568D01*
X113725532Y-69610121D01*
X113654098Y-69426430D01*
X113654097Y-69426428D01*
X113652405Y-69422077D01*
X113645403Y-69409825D01*
X113589952Y-69312807D01*
X113523299Y-69196188D01*
X113362223Y-68991864D01*
X113359811Y-68989595D01*
X113328693Y-68926183D01*
X113336840Y-68855655D01*
X113358132Y-68821714D01*
X113426766Y-68743451D01*
X113469931Y-68694231D01*
X113496738Y-68652556D01*
X113608155Y-68479338D01*
X113610683Y-68475408D01*
X113717544Y-68238185D01*
X113756237Y-68100992D01*
X113786898Y-67992276D01*
X113786899Y-67992273D01*
X113788168Y-67987772D01*
X113797808Y-67911997D01*
X113820604Y-67732801D01*
X113820604Y-67732797D01*
X113821002Y-67729671D01*
X113821108Y-67725653D01*
X113823325Y-67640960D01*
X113823408Y-67637800D01*
X113813955Y-67510591D01*
X113804472Y-67382986D01*
X113804471Y-67382982D01*
X113804126Y-67378334D01*
X113746705Y-67124568D01*
X113745012Y-67120214D01*
X113654098Y-66886430D01*
X113654097Y-66886428D01*
X113652405Y-66882077D01*
X113625636Y-66835240D01*
X113525618Y-66660246D01*
X113523299Y-66656188D01*
X113362223Y-66451864D01*
X113308167Y-66401013D01*
X113272255Y-66339768D01*
X113268500Y-66309238D01*
X113268500Y-65706924D01*
X113268770Y-65698683D01*
X113272852Y-65636409D01*
X113272852Y-65636407D01*
X113273230Y-65630639D01*
X113262303Y-65538325D01*
X113261959Y-65535052D01*
X113253983Y-65448248D01*
X113253454Y-65442489D01*
X113251848Y-65436794D01*
X113247992Y-65417411D01*
X113247975Y-65417271D01*
X113247296Y-65411533D01*
X113219725Y-65322738D01*
X113218791Y-65319582D01*
X113205985Y-65274175D01*
X113193565Y-65230136D01*
X113191008Y-65224950D01*
X113190943Y-65224817D01*
X113183624Y-65206473D01*
X113183582Y-65206336D01*
X113183581Y-65206334D01*
X113181869Y-65200820D01*
X113138580Y-65118540D01*
X113137111Y-65115658D01*
X113128262Y-65097715D01*
X113095980Y-65032253D01*
X113092438Y-65027510D01*
X113081892Y-65010796D01*
X113080894Y-65008899D01*
X115589109Y-65008899D01*
X115589204Y-65012529D01*
X115589204Y-65012531D01*
X115594886Y-65229515D01*
X115597638Y-65334632D01*
X115598149Y-65338222D01*
X115598149Y-65338223D01*
X115612178Y-65436794D01*
X115643550Y-65657227D01*
X115726236Y-65972407D01*
X115844600Y-66275995D01*
X115875918Y-66335144D01*
X115947305Y-66469970D01*
X115997073Y-66563966D01*
X115999130Y-66566959D01*
X116179577Y-66829511D01*
X116179583Y-66829518D01*
X116181634Y-66832503D01*
X116242864Y-66902692D01*
X116362066Y-67039336D01*
X116395837Y-67078049D01*
X116636842Y-67297347D01*
X116639784Y-67299461D01*
X116898505Y-67485371D01*
X116898511Y-67485375D01*
X116901456Y-67487491D01*
X117186171Y-67645961D01*
X117487213Y-67770657D01*
X117490707Y-67771652D01*
X117490709Y-67771653D01*
X117797091Y-67858929D01*
X117797096Y-67858930D01*
X117800592Y-67859926D01*
X117933939Y-67881762D01*
X118118573Y-67911997D01*
X118118580Y-67911998D01*
X118122154Y-67912583D01*
X118284896Y-67920258D01*
X118444011Y-67927762D01*
X118444012Y-67927762D01*
X118447638Y-67927933D01*
X118453449Y-67927537D01*
X118769112Y-67906017D01*
X118769119Y-67906016D01*
X118772729Y-67905770D01*
X119093118Y-67846390D01*
X119404559Y-67750578D01*
X119455499Y-67728217D01*
X119699592Y-67621068D01*
X119699597Y-67621065D01*
X119702924Y-67619605D01*
X119984257Y-67455207D01*
X120191692Y-67299461D01*
X120241924Y-67261746D01*
X120241928Y-67261743D01*
X120244831Y-67259563D01*
X120481191Y-67035265D01*
X120690205Y-66785288D01*
X120718597Y-66742065D01*
X120867114Y-66515970D01*
X120867119Y-66515961D01*
X120869101Y-66512944D01*
X120956200Y-66339768D01*
X121013883Y-66225079D01*
X121013886Y-66225071D01*
X121015510Y-66221843D01*
X121080576Y-66044043D01*
X121126242Y-65919254D01*
X121126243Y-65919250D01*
X121127490Y-65915843D01*
X121128335Y-65912321D01*
X121128338Y-65912313D01*
X121202710Y-65602530D01*
X121202711Y-65602526D01*
X121203557Y-65599001D01*
X121207325Y-65567865D01*
X121242367Y-65278294D01*
X121242368Y-65278287D01*
X121242703Y-65275515D01*
X121246689Y-65148669D01*
X121268821Y-65081211D01*
X121323910Y-65036426D01*
X121374606Y-65026643D01*
X121567045Y-65029667D01*
X121575596Y-65029218D01*
X121838883Y-64997357D01*
X121847284Y-64995755D01*
X122103824Y-64928453D01*
X122111926Y-64925726D01*
X122356949Y-64824234D01*
X122364617Y-64820428D01*
X122593598Y-64686622D01*
X122600679Y-64681809D01*
X122680655Y-64619101D01*
X122689125Y-64607242D01*
X122682608Y-64595618D01*
X121107922Y-63020932D01*
X121830408Y-63020932D01*
X121830539Y-63022765D01*
X121834790Y-63029380D01*
X123041730Y-64236320D01*
X123053939Y-64242987D01*
X123065439Y-64234297D01*
X123162831Y-64101713D01*
X123167418Y-64094485D01*
X123293962Y-63861421D01*
X123297530Y-63853627D01*
X123391271Y-63605550D01*
X123393748Y-63597344D01*
X123452954Y-63338838D01*
X123454294Y-63330377D01*
X123478031Y-63064416D01*
X123478277Y-63059477D01*
X123478666Y-63022285D01*
X123478523Y-63017319D01*
X123460362Y-62750923D01*
X123459201Y-62742449D01*
X123405419Y-62482744D01*
X123403120Y-62474509D01*
X123314588Y-62224505D01*
X123311191Y-62216654D01*
X123189550Y-61980978D01*
X123185122Y-61973666D01*
X123066031Y-61804217D01*
X123055509Y-61795837D01*
X123042121Y-61802889D01*
X121838022Y-63006988D01*
X121830408Y-63020932D01*
X121107922Y-63020932D01*
X119889814Y-61802824D01*
X119877804Y-61796266D01*
X119866064Y-61805234D01*
X119757935Y-61955711D01*
X119753418Y-61962996D01*
X119629325Y-62197367D01*
X119625839Y-62205195D01*
X119564013Y-62374144D01*
X119521819Y-62431242D01*
X119455454Y-62456464D01*
X119401150Y-62448709D01*
X119264372Y-62397025D01*
X119260851Y-62396141D01*
X119260846Y-62396139D01*
X119015063Y-62334403D01*
X118948343Y-62317644D01*
X118930015Y-62315231D01*
X118628889Y-62275587D01*
X118628881Y-62275586D01*
X118625285Y-62275113D01*
X118490187Y-62272991D01*
X118303122Y-62270052D01*
X118303118Y-62270052D01*
X118299480Y-62269995D01*
X118295866Y-62270356D01*
X118295860Y-62270356D01*
X118107822Y-62289125D01*
X117975245Y-62302358D01*
X117656879Y-62371773D01*
X117653452Y-62372946D01*
X117653446Y-62372948D01*
X117352033Y-62476145D01*
X117352028Y-62476147D01*
X117348602Y-62477320D01*
X117345334Y-62478879D01*
X117345326Y-62478882D01*
X117230822Y-62533498D01*
X117054498Y-62617600D01*
X117051419Y-62619531D01*
X117051418Y-62619532D01*
X117016164Y-62641647D01*
X116778467Y-62790754D01*
X116775633Y-62793024D01*
X116775628Y-62793028D01*
X116658812Y-62886616D01*
X116524168Y-62994486D01*
X116294970Y-63226097D01*
X116093911Y-63482516D01*
X116092018Y-63485605D01*
X116092016Y-63485608D01*
X116080940Y-63503683D01*
X115923657Y-63760345D01*
X115922132Y-63763630D01*
X115922130Y-63763634D01*
X115847565Y-63924271D01*
X115786465Y-64055901D01*
X115684152Y-64365268D01*
X115683416Y-64368823D01*
X115683415Y-64368826D01*
X115640248Y-64577269D01*
X115618074Y-64684343D01*
X115617751Y-64687965D01*
X115617750Y-64687970D01*
X115589571Y-65003721D01*
X115589109Y-65008899D01*
X113080894Y-65008899D01*
X113079137Y-65005559D01*
X113021572Y-64932537D01*
X113019575Y-64929935D01*
X113018469Y-64928453D01*
X112963967Y-64855467D01*
X112900481Y-64796782D01*
X112896916Y-64793352D01*
X111040320Y-62936757D01*
X111034683Y-62930739D01*
X110993515Y-62883796D01*
X110989710Y-62879457D01*
X110985179Y-62875885D01*
X110916686Y-62821889D01*
X110914124Y-62819814D01*
X110847125Y-62764092D01*
X110847123Y-62764090D01*
X110842683Y-62760398D01*
X110837639Y-62757573D01*
X110837513Y-62757502D01*
X110821091Y-62746529D01*
X110820976Y-62746438D01*
X110820971Y-62746435D01*
X110816440Y-62742863D01*
X110734183Y-62699585D01*
X110731302Y-62698021D01*
X110668764Y-62662998D01*
X110655222Y-62655414D01*
X110655220Y-62655413D01*
X110650179Y-62652590D01*
X110644580Y-62650690D01*
X110626413Y-62642884D01*
X110626294Y-62642822D01*
X110621180Y-62640131D01*
X110532406Y-62612566D01*
X110529280Y-62611550D01*
X110446721Y-62583525D01*
X110446716Y-62583524D01*
X110441252Y-62581669D01*
X110435384Y-62580818D01*
X110416130Y-62576461D01*
X110415983Y-62576415D01*
X110415977Y-62576414D01*
X110410467Y-62574703D01*
X110404739Y-62574025D01*
X110404734Y-62574024D01*
X110325518Y-62564649D01*
X110318144Y-62563776D01*
X110314885Y-62563347D01*
X110298627Y-62560990D01*
X110228611Y-62550837D01*
X110228607Y-62550837D01*
X110222898Y-62550009D01*
X110136514Y-62553403D01*
X110131567Y-62553500D01*
X108829655Y-62553500D01*
X108761534Y-62533498D01*
X108740560Y-62516596D01*
X108111805Y-61887842D01*
X108077780Y-61825529D01*
X108074900Y-61798746D01*
X108074900Y-61432300D01*
X120242584Y-61432300D01*
X120248980Y-61443570D01*
X121453188Y-62647778D01*
X121467132Y-62655392D01*
X121468965Y-62655261D01*
X121475580Y-62651010D01*
X122682604Y-61443986D01*
X122689795Y-61430817D01*
X122682473Y-61420580D01*
X122635233Y-61381915D01*
X122628261Y-61376960D01*
X122402122Y-61238382D01*
X122394552Y-61234424D01*
X122151704Y-61127822D01*
X122143644Y-61124920D01*
X121888592Y-61052267D01*
X121880214Y-61050485D01*
X121617656Y-61013118D01*
X121609111Y-61012491D01*
X121343908Y-61011102D01*
X121335374Y-61011639D01*
X121072433Y-61046256D01*
X121064035Y-61047949D01*
X120808238Y-61117927D01*
X120800143Y-61120746D01*
X120556199Y-61224797D01*
X120548577Y-61228681D01*
X120321013Y-61364875D01*
X120313981Y-61369762D01*
X120251053Y-61420177D01*
X120242584Y-61432300D01*
X108074900Y-61432300D01*
X108074900Y-60352000D01*
X108094902Y-60283879D01*
X108148558Y-60237386D01*
X108200900Y-60226000D01*
X124066303Y-60226000D01*
X124072897Y-60226173D01*
X124138721Y-60229623D01*
X124138725Y-60229623D01*
X124145102Y-60229957D01*
X124151415Y-60229002D01*
X124151420Y-60229002D01*
X124218322Y-60218883D01*
X124224432Y-60218111D01*
X124291767Y-60211272D01*
X124291769Y-60211272D01*
X124298115Y-60210627D01*
X124312369Y-60206160D01*
X124331197Y-60201813D01*
X124345972Y-60199578D01*
X124415486Y-60174002D01*
X124421311Y-60172019D01*
X124485878Y-60151785D01*
X124491973Y-60149875D01*
X124497555Y-60146781D01*
X124497562Y-60146778D01*
X124505036Y-60142635D01*
X124522610Y-60134589D01*
X124530634Y-60131637D01*
X124530643Y-60131633D01*
X124536632Y-60129429D01*
X124543214Y-60125348D01*
X124549106Y-60121695D01*
X124617542Y-60102800D01*
X124685329Y-60123903D01*
X124730947Y-60178305D01*
X124741500Y-60228783D01*
X124741500Y-60968844D01*
X124741673Y-60971169D01*
X124741673Y-60971175D01*
X124753099Y-61124920D01*
X124755874Y-61162266D01*
X124813295Y-61416032D01*
X124814987Y-61420384D01*
X124814988Y-61420386D01*
X124899483Y-61637662D01*
X124907595Y-61658523D01*
X124909912Y-61662577D01*
X124909913Y-61662579D01*
X124931152Y-61699739D01*
X125036701Y-61884412D01*
X125197777Y-62088736D01*
X125237110Y-62125737D01*
X125251833Y-62139587D01*
X125287745Y-62200832D01*
X125291500Y-62231362D01*
X125291500Y-62667071D01*
X125291230Y-62675312D01*
X125286770Y-62743360D01*
X125296929Y-62829188D01*
X125297699Y-62835695D01*
X125298040Y-62838949D01*
X125306546Y-62931511D01*
X125308116Y-62937078D01*
X125308117Y-62937082D01*
X125308152Y-62937206D01*
X125312008Y-62956589D01*
X125312704Y-62962467D01*
X125340272Y-63051251D01*
X125341186Y-63054335D01*
X125366435Y-63143864D01*
X125368988Y-63149041D01*
X125368992Y-63149051D01*
X125369054Y-63149176D01*
X125376379Y-63167537D01*
X125378131Y-63173179D01*
X125417342Y-63247707D01*
X125421403Y-63255425D01*
X125422896Y-63258356D01*
X125464020Y-63341747D01*
X125467564Y-63346493D01*
X125478108Y-63363205D01*
X125480863Y-63368441D01*
X125484440Y-63372978D01*
X125538417Y-63441448D01*
X125540413Y-63444050D01*
X125547583Y-63453651D01*
X125586007Y-63505106D01*
X125596033Y-63518533D01*
X125651553Y-63569855D01*
X125659518Y-63577218D01*
X125663084Y-63580648D01*
X127709160Y-65626724D01*
X127743186Y-65689036D01*
X127738121Y-65759851D01*
X127695574Y-65816687D01*
X127629054Y-65841498D01*
X127618425Y-65841808D01*
X127516669Y-65840476D01*
X127459512Y-65839727D01*
X127459509Y-65839727D01*
X127454835Y-65839666D01*
X127197030Y-65874752D01*
X126947243Y-65947558D01*
X126710961Y-66056486D01*
X126707056Y-66059046D01*
X126707051Y-66059049D01*
X126497288Y-66196575D01*
X126497283Y-66196579D01*
X126493375Y-66199141D01*
X126403662Y-66279213D01*
X126309005Y-66363698D01*
X126299265Y-66372391D01*
X126132895Y-66572429D01*
X125997920Y-66794861D01*
X125996111Y-66799175D01*
X125996110Y-66799177D01*
X125915350Y-66991769D01*
X125897305Y-67034801D01*
X125896154Y-67039333D01*
X125896153Y-67039336D01*
X125874507Y-67124568D01*
X125833261Y-67286977D01*
X125807194Y-67545849D01*
X125807418Y-67550515D01*
X125807418Y-67550520D01*
X125811918Y-67644196D01*
X125819677Y-67805730D01*
X125870435Y-68060912D01*
X125958355Y-68305789D01*
X126081504Y-68534980D01*
X126084299Y-68538723D01*
X126084301Y-68538726D01*
X126234385Y-68739713D01*
X126234390Y-68739719D01*
X126237177Y-68743451D01*
X126240492Y-68746737D01*
X126266224Y-68772246D01*
X126300521Y-68834410D01*
X126295764Y-68905247D01*
X126274393Y-68942296D01*
X126132895Y-69112429D01*
X125997920Y-69334861D01*
X125996111Y-69339175D01*
X125996110Y-69339177D01*
X125914992Y-69532623D01*
X125897305Y-69574801D01*
X125896154Y-69579333D01*
X125896153Y-69579336D01*
X125875613Y-69660214D01*
X125833261Y-69826977D01*
X125807194Y-70085849D01*
X125807418Y-70090515D01*
X125807418Y-70090520D01*
X125812887Y-70204378D01*
X125819677Y-70345730D01*
X125870435Y-70600912D01*
X125958355Y-70845789D01*
X126081504Y-71074980D01*
X126084299Y-71078723D01*
X126084301Y-71078726D01*
X126234385Y-71279713D01*
X126234390Y-71279719D01*
X126237177Y-71283451D01*
X126240492Y-71286737D01*
X126266224Y-71312246D01*
X126300521Y-71374410D01*
X126295764Y-71445247D01*
X126274393Y-71482296D01*
X126132895Y-71652429D01*
X125997920Y-71874861D01*
X125996111Y-71879175D01*
X125996110Y-71879177D01*
X125908049Y-72089180D01*
X125897305Y-72114801D01*
X125833261Y-72366977D01*
X125807194Y-72625849D01*
X125807418Y-72630515D01*
X125807418Y-72630520D01*
X125813064Y-72748047D01*
X125819677Y-72885730D01*
X125870435Y-73140912D01*
X125958355Y-73385789D01*
X126081504Y-73614980D01*
X126084299Y-73618723D01*
X126084301Y-73618726D01*
X126234385Y-73819713D01*
X126234390Y-73819719D01*
X126237177Y-73823451D01*
X126242079Y-73828310D01*
X126266224Y-73852246D01*
X126300521Y-73914410D01*
X126295764Y-73985247D01*
X126274393Y-74022296D01*
X126132895Y-74192429D01*
X125997920Y-74414861D01*
X125996111Y-74419175D01*
X125996110Y-74419177D01*
X125907633Y-74630172D01*
X125897305Y-74654801D01*
X125896154Y-74659333D01*
X125896153Y-74659336D01*
X125888843Y-74688119D01*
X125833261Y-74906977D01*
X125807194Y-75165849D01*
X125807418Y-75170515D01*
X125807418Y-75170520D01*
X125808539Y-75193846D01*
X125819677Y-75425730D01*
X125870435Y-75680912D01*
X125958355Y-75925789D01*
X126081504Y-76154980D01*
X126084299Y-76158723D01*
X126084301Y-76158726D01*
X126234385Y-76359713D01*
X126234390Y-76359719D01*
X126237177Y-76363451D01*
X126240486Y-76366731D01*
X126240491Y-76366737D01*
X126418637Y-76543335D01*
X126421954Y-76546623D01*
X126425716Y-76549381D01*
X126425719Y-76549384D01*
X126538332Y-76631955D01*
X126631775Y-76700470D01*
X126635910Y-76702646D01*
X126635914Y-76702648D01*
X126760552Y-76768223D01*
X126862033Y-76821615D01*
X126946755Y-76851201D01*
X127103186Y-76905829D01*
X127107667Y-76907394D01*
X127112260Y-76908266D01*
X127358693Y-76955053D01*
X127358696Y-76955053D01*
X127363282Y-76955924D01*
X127493272Y-76961031D01*
X127618595Y-76965956D01*
X127618601Y-76965956D01*
X127623263Y-76966139D01*
X127703994Y-76957298D01*
X127877245Y-76938324D01*
X127877250Y-76938323D01*
X127881898Y-76937814D01*
X127886422Y-76936623D01*
X128128982Y-76872762D01*
X128128984Y-76872761D01*
X128133505Y-76871571D01*
X128137802Y-76869725D01*
X128368263Y-76770711D01*
X128368265Y-76770710D01*
X128372557Y-76768866D01*
X128533013Y-76669573D01*
X128589820Y-76634420D01*
X128589822Y-76634418D01*
X128593803Y-76631955D01*
X128597380Y-76628927D01*
X128788809Y-76466871D01*
X128788811Y-76466869D01*
X128792382Y-76463846D01*
X128963931Y-76268231D01*
X128968519Y-76261099D01*
X129092461Y-76068409D01*
X129104683Y-76049408D01*
X129211544Y-75812185D01*
X129228285Y-75752826D01*
X129259166Y-75643332D01*
X129296908Y-75583198D01*
X129361169Y-75553016D01*
X129421974Y-75558579D01*
X129647667Y-75637394D01*
X129652260Y-75638266D01*
X129898693Y-75685053D01*
X129898696Y-75685053D01*
X129903282Y-75685924D01*
X130033273Y-75691032D01*
X130158595Y-75695956D01*
X130158601Y-75695956D01*
X130163263Y-75696139D01*
X130264489Y-75685053D01*
X130417245Y-75668324D01*
X130417250Y-75668323D01*
X130421898Y-75667814D01*
X130514887Y-75643332D01*
X130668982Y-75602762D01*
X130668984Y-75602761D01*
X130673505Y-75601571D01*
X130712373Y-75584872D01*
X130908263Y-75500711D01*
X130908265Y-75500710D01*
X130912557Y-75498866D01*
X131133803Y-75361955D01*
X131137380Y-75358927D01*
X131328809Y-75196871D01*
X131328811Y-75196869D01*
X131332382Y-75193846D01*
X131339945Y-75185221D01*
X131399896Y-75147195D01*
X131434676Y-75142300D01*
X133023471Y-75142300D01*
X133031713Y-75142570D01*
X133099760Y-75147030D01*
X133192127Y-75136098D01*
X133195349Y-75135760D01*
X133287911Y-75127254D01*
X133293478Y-75125684D01*
X133293482Y-75125683D01*
X133293606Y-75125648D01*
X133312989Y-75121792D01*
X133313129Y-75121775D01*
X133318867Y-75121096D01*
X133407659Y-75093526D01*
X133410735Y-75092614D01*
X133500264Y-75067365D01*
X133505441Y-75064812D01*
X133505451Y-75064808D01*
X133505576Y-75064746D01*
X133523937Y-75057421D01*
X133524060Y-75057383D01*
X133524064Y-75057381D01*
X133529579Y-75055669D01*
X133611834Y-75012393D01*
X133614765Y-75010899D01*
X133698147Y-74969780D01*
X133702893Y-74966236D01*
X133719605Y-74955692D01*
X133724841Y-74952937D01*
X133797863Y-74895372D01*
X133800465Y-74893375D01*
X133848315Y-74857644D01*
X133914865Y-74832912D01*
X133984221Y-74848087D01*
X134034364Y-74898349D01*
X134049372Y-74967741D01*
X134031137Y-75024436D01*
X133957657Y-75144345D01*
X133956132Y-75147630D01*
X133956130Y-75147634D01*
X133920982Y-75223354D01*
X133820465Y-75439901D01*
X133718152Y-75749268D01*
X133717416Y-75752823D01*
X133717415Y-75752826D01*
X133663727Y-76012072D01*
X133652074Y-76068343D01*
X133651751Y-76071965D01*
X133651750Y-76071970D01*
X133624678Y-76375318D01*
X133623109Y-76392899D01*
X133623204Y-76396529D01*
X133623204Y-76396531D01*
X133631516Y-76713969D01*
X133631638Y-76718632D01*
X133632149Y-76722222D01*
X133632149Y-76722223D01*
X133644099Y-76806186D01*
X133677550Y-77041227D01*
X133760236Y-77356407D01*
X133878600Y-77659995D01*
X133880304Y-77663213D01*
X133976526Y-77844944D01*
X134031073Y-77947966D01*
X134033130Y-77950959D01*
X134213577Y-78213511D01*
X134213583Y-78213518D01*
X134215634Y-78216503D01*
X134429837Y-78462049D01*
X134670842Y-78681347D01*
X134673784Y-78683461D01*
X134932505Y-78869371D01*
X134932511Y-78869375D01*
X134935456Y-78871491D01*
X134938636Y-78873261D01*
X134983373Y-78898161D01*
X135220171Y-79029961D01*
X135521213Y-79154657D01*
X135524707Y-79155652D01*
X135524709Y-79155653D01*
X135831091Y-79242929D01*
X135831096Y-79242930D01*
X135834592Y-79243926D01*
X135991886Y-79269684D01*
X136152573Y-79295997D01*
X136152580Y-79295998D01*
X136156154Y-79296583D01*
X136318896Y-79304258D01*
X136478011Y-79311762D01*
X136478012Y-79311762D01*
X136481638Y-79311933D01*
X136487449Y-79311537D01*
X136803112Y-79290017D01*
X136803119Y-79290016D01*
X136806729Y-79289770D01*
X137127118Y-79230390D01*
X137438559Y-79134578D01*
X137438570Y-79134615D01*
X137508515Y-79129679D01*
X137570795Y-79163763D01*
X137600822Y-79211961D01*
X137643184Y-79335694D01*
X137646499Y-79343579D01*
X137765664Y-79580513D01*
X137770020Y-79587879D01*
X137899347Y-79776050D01*
X137909601Y-79784394D01*
X137923342Y-79777248D01*
X139139658Y-78560932D01*
X139864408Y-78560932D01*
X139864539Y-78562765D01*
X139868790Y-78569380D01*
X141075730Y-79776320D01*
X141087939Y-79782987D01*
X141099439Y-79774297D01*
X141196831Y-79641713D01*
X141201418Y-79634485D01*
X141327962Y-79401421D01*
X141331530Y-79393627D01*
X141425271Y-79145550D01*
X141427748Y-79137344D01*
X141486954Y-78878838D01*
X141488294Y-78870377D01*
X141512031Y-78604416D01*
X141512277Y-78599477D01*
X141512666Y-78562285D01*
X141512523Y-78557319D01*
X141494362Y-78290923D01*
X141493201Y-78282449D01*
X141439419Y-78022744D01*
X141437120Y-78014509D01*
X141348588Y-77764505D01*
X141345191Y-77756654D01*
X141223550Y-77520978D01*
X141219122Y-77513666D01*
X141100031Y-77344217D01*
X141089509Y-77335837D01*
X141076121Y-77342889D01*
X139872022Y-78546988D01*
X139864408Y-78560932D01*
X139139658Y-78560932D01*
X140716604Y-76983986D01*
X140723795Y-76970817D01*
X140716473Y-76960580D01*
X140669233Y-76921915D01*
X140662261Y-76916960D01*
X140436122Y-76778382D01*
X140428552Y-76774424D01*
X140185704Y-76667822D01*
X140177644Y-76664920D01*
X139922592Y-76592267D01*
X139914214Y-76590485D01*
X139651656Y-76553118D01*
X139643111Y-76552491D01*
X139404577Y-76551242D01*
X139336561Y-76530884D01*
X139290350Y-76476986D01*
X139279445Y-76432497D01*
X139278406Y-76414467D01*
X139269747Y-76264303D01*
X139263740Y-76160115D01*
X139263739Y-76160110D01*
X139263531Y-76156495D01*
X139261737Y-76146216D01*
X139208133Y-75839074D01*
X139208131Y-75839067D01*
X139207509Y-75835501D01*
X139200603Y-75812185D01*
X139133269Y-75584872D01*
X139114964Y-75523074D01*
X138987122Y-75223354D01*
X138972017Y-75196871D01*
X138827470Y-74943455D01*
X138825679Y-74940315D01*
X138808185Y-74916499D01*
X138634914Y-74680620D01*
X138634912Y-74680618D01*
X138632774Y-74677707D01*
X138445073Y-74475716D01*
X138413436Y-74441670D01*
X138413435Y-74441669D01*
X138410965Y-74439011D01*
X138408205Y-74436654D01*
X138408199Y-74436648D01*
X138188802Y-74249266D01*
X138163190Y-74227391D01*
X137892734Y-74045652D01*
X137889525Y-74043996D01*
X137889517Y-74043991D01*
X137606402Y-73897865D01*
X137603182Y-73896203D01*
X137298372Y-73781025D01*
X137294851Y-73780141D01*
X137294846Y-73780139D01*
X137107694Y-73733130D01*
X136982343Y-73701644D01*
X136964015Y-73699231D01*
X136662889Y-73659587D01*
X136662881Y-73659586D01*
X136659285Y-73659113D01*
X136524187Y-73656991D01*
X136337122Y-73654052D01*
X136337118Y-73654052D01*
X136333480Y-73653995D01*
X136329866Y-73654356D01*
X136329860Y-73654356D01*
X136101901Y-73677110D01*
X136009245Y-73686358D01*
X135690879Y-73755773D01*
X135687452Y-73756946D01*
X135687446Y-73756948D01*
X135386033Y-73860145D01*
X135386028Y-73860147D01*
X135382602Y-73861320D01*
X135379334Y-73862879D01*
X135379326Y-73862882D01*
X135275948Y-73912191D01*
X135088498Y-74001600D01*
X135017660Y-74046037D01*
X135006794Y-74052853D01*
X134938459Y-74072108D01*
X134870561Y-74051362D01*
X134824658Y-73997201D01*
X134815324Y-73926820D01*
X134845522Y-73862566D01*
X134850743Y-73857021D01*
X135283559Y-73424205D01*
X135345871Y-73390179D01*
X135372654Y-73387300D01*
X139909271Y-73387300D01*
X139917513Y-73387570D01*
X139985560Y-73392030D01*
X140077927Y-73381098D01*
X140081149Y-73380760D01*
X140173711Y-73372254D01*
X140179278Y-73370684D01*
X140179282Y-73370683D01*
X140179406Y-73370648D01*
X140198789Y-73366792D01*
X140198929Y-73366775D01*
X140204667Y-73366096D01*
X140293459Y-73338526D01*
X140296535Y-73337614D01*
X140386064Y-73312365D01*
X140391241Y-73309812D01*
X140391251Y-73309808D01*
X140391376Y-73309746D01*
X140409737Y-73302421D01*
X140409860Y-73302383D01*
X140409864Y-73302381D01*
X140415379Y-73300669D01*
X140497634Y-73257393D01*
X140500565Y-73255899D01*
X140504692Y-73253864D01*
X140583947Y-73214780D01*
X140588693Y-73211236D01*
X140605405Y-73200692D01*
X140610641Y-73197937D01*
X140683663Y-73140372D01*
X140686265Y-73138375D01*
X140756109Y-73086220D01*
X140760733Y-73082767D01*
X140819418Y-73019281D01*
X140822848Y-73015716D01*
X143057243Y-70781320D01*
X143063261Y-70775683D01*
X143110196Y-70734522D01*
X143114543Y-70730710D01*
X143172132Y-70657658D01*
X143174150Y-70655167D01*
X143229908Y-70588126D01*
X143229910Y-70588123D01*
X143233602Y-70583684D01*
X143236422Y-70578649D01*
X143236426Y-70578643D01*
X143236499Y-70578513D01*
X143247474Y-70562087D01*
X143247557Y-70561982D01*
X143247560Y-70561978D01*
X143251137Y-70557440D01*
X143294417Y-70475178D01*
X143295977Y-70472305D01*
X143338586Y-70396222D01*
X143338587Y-70396220D01*
X143341410Y-70391179D01*
X143343310Y-70385580D01*
X143351116Y-70367413D01*
X143351178Y-70367294D01*
X143353869Y-70362180D01*
X143381434Y-70273406D01*
X143382450Y-70270280D01*
X143410475Y-70187721D01*
X143410476Y-70187716D01*
X143412331Y-70182252D01*
X143413182Y-70176384D01*
X143417539Y-70157130D01*
X143417585Y-70156983D01*
X143417586Y-70156977D01*
X143419297Y-70151467D01*
X143421398Y-70133722D01*
X143430223Y-70059150D01*
X143430654Y-70055878D01*
X143443163Y-69969611D01*
X143443163Y-69969607D01*
X143443991Y-69963898D01*
X143440597Y-69877514D01*
X143440500Y-69872567D01*
X143440500Y-62274729D01*
X143440770Y-62266488D01*
X143444852Y-62204206D01*
X143445230Y-62198440D01*
X143434298Y-62106073D01*
X143433957Y-62102824D01*
X143433451Y-62097313D01*
X143425454Y-62010289D01*
X143423848Y-62004594D01*
X143419992Y-61985211D01*
X143419975Y-61985071D01*
X143419296Y-61979333D01*
X143391726Y-61890541D01*
X143390814Y-61887465D01*
X143365565Y-61797936D01*
X143363012Y-61792759D01*
X143363008Y-61792749D01*
X143362946Y-61792624D01*
X143355621Y-61774263D01*
X143355583Y-61774140D01*
X143355581Y-61774136D01*
X143353869Y-61768621D01*
X143310593Y-61686366D01*
X143309099Y-61683435D01*
X143298621Y-61662187D01*
X143267980Y-61600053D01*
X143264436Y-61595307D01*
X143253892Y-61578595D01*
X143251137Y-61573359D01*
X143193572Y-61500337D01*
X143191575Y-61497735D01*
X143174214Y-61474485D01*
X143135967Y-61423267D01*
X143072481Y-61364582D01*
X143068942Y-61361178D01*
X142148857Y-60441093D01*
X142114833Y-60378783D01*
X142119897Y-60307968D01*
X142162444Y-60251132D01*
X142228964Y-60226321D01*
X142237953Y-60226000D01*
X158066303Y-60226000D01*
X158072897Y-60226173D01*
X158138721Y-60229623D01*
X158138725Y-60229623D01*
X158145102Y-60229957D01*
X158151415Y-60229002D01*
X158151420Y-60229002D01*
X158218322Y-60218883D01*
X158224432Y-60218111D01*
X158291767Y-60211272D01*
X158291769Y-60211272D01*
X158298115Y-60210627D01*
X158312369Y-60206160D01*
X158331197Y-60201813D01*
X158345972Y-60199578D01*
X158415486Y-60174002D01*
X158421311Y-60172019D01*
X158485878Y-60151785D01*
X158491973Y-60149875D01*
X158497555Y-60146781D01*
X158497562Y-60146778D01*
X158505036Y-60142635D01*
X158522610Y-60134589D01*
X158530634Y-60131637D01*
X158530643Y-60131633D01*
X158536632Y-60129429D01*
X158599588Y-60090394D01*
X158604853Y-60087305D01*
X158669657Y-60051384D01*
X158680998Y-60041663D01*
X158696605Y-60030241D01*
X158703865Y-60025740D01*
X158703866Y-60025739D01*
X158709292Y-60022375D01*
X158741501Y-59991917D01*
X158763103Y-59971489D01*
X158767678Y-59967370D01*
X158789038Y-59949062D01*
X158823906Y-59919176D01*
X158833064Y-59907369D01*
X158846046Y-59893053D01*
X158852258Y-59887179D01*
X158852259Y-59887177D01*
X158856899Y-59882790D01*
X158891157Y-59833865D01*
X158899382Y-59822119D01*
X158903035Y-59817164D01*
X158944513Y-59763690D01*
X158948421Y-59758652D01*
X158951237Y-59752929D01*
X158953548Y-59749231D01*
X159006609Y-59702060D01*
X159060402Y-59690000D01*
X159424629Y-59690000D01*
X159492750Y-59710002D01*
G37*
G04 #@! TD.AperFunction*
G04 #@! TA.AperFunction,Conductor*
G36*
X101805033Y-70558324D02*
G01*
X101850095Y-70587284D01*
X101940606Y-70677794D01*
X101940607Y-70677795D01*
X102031116Y-70768305D01*
X102065141Y-70830617D01*
X102060075Y-70901433D01*
X102031115Y-70946496D01*
X101234913Y-71742697D01*
X100797921Y-72179690D01*
X100735609Y-72213715D01*
X100664793Y-72208650D01*
X100619731Y-72179690D01*
X100529220Y-72089180D01*
X100529219Y-72089179D01*
X100438710Y-71998669D01*
X100404685Y-71936357D01*
X100409751Y-71865541D01*
X100438711Y-71820478D01*
X101234913Y-71024277D01*
X101671905Y-70587284D01*
X101734217Y-70553259D01*
X101805033Y-70558324D01*
G37*
G04 #@! TD.AperFunction*
G04 #@! TA.AperFunction,Conductor*
G36*
X137400053Y-59710002D02*
G01*
X137446546Y-59763658D01*
X137449364Y-59770331D01*
X137453498Y-59780961D01*
X137453502Y-59780969D01*
X137455195Y-59785323D01*
X137457515Y-59789382D01*
X137457517Y-59789386D01*
X137458716Y-59791484D01*
X137465936Y-59806286D01*
X137468625Y-59812859D01*
X137507118Y-59877559D01*
X137526760Y-59910574D01*
X137527866Y-59912471D01*
X137584301Y-60011212D01*
X137588703Y-60016796D01*
X137598027Y-60030364D01*
X137599263Y-60032441D01*
X137601655Y-60036461D01*
X137616373Y-60054475D01*
X137673572Y-60124484D01*
X137674948Y-60126198D01*
X137742016Y-60211272D01*
X137745377Y-60215536D01*
X137781455Y-60249475D01*
X137821201Y-60286864D01*
X137823963Y-60289544D01*
X137873910Y-60339491D01*
X137875686Y-60341021D01*
X137910327Y-60370870D01*
X137914412Y-60374548D01*
X137931485Y-60390609D01*
X137934886Y-60393808D01*
X137940049Y-60397389D01*
X137950468Y-60405457D01*
X138020844Y-60466097D01*
X138240886Y-60604933D01*
X138479033Y-60709720D01*
X138730053Y-60778156D01*
X138734685Y-60778704D01*
X138734689Y-60778705D01*
X138850729Y-60792439D01*
X138988430Y-60808737D01*
X139016540Y-60807878D01*
X139036054Y-60807282D01*
X139104754Y-60825194D01*
X139152864Y-60877405D01*
X139165109Y-60947338D01*
X139137602Y-61012789D01*
X139073150Y-61054757D01*
X138842238Y-61117927D01*
X138834143Y-61120746D01*
X138590199Y-61224797D01*
X138582577Y-61228681D01*
X138355013Y-61364875D01*
X138347981Y-61369762D01*
X138285053Y-61420177D01*
X138276584Y-61432300D01*
X138282980Y-61443570D01*
X139770115Y-62930705D01*
X139804141Y-62993017D01*
X139799076Y-63063832D01*
X139770115Y-63108895D01*
X139589095Y-63289915D01*
X139526783Y-63323941D01*
X139455968Y-63318876D01*
X139410905Y-63289915D01*
X137923814Y-61802824D01*
X137911804Y-61796266D01*
X137900064Y-61805234D01*
X137791935Y-61955711D01*
X137787418Y-61962996D01*
X137663325Y-62197367D01*
X137659837Y-62205200D01*
X137612802Y-62333731D01*
X137570608Y-62390830D01*
X137504243Y-62416052D01*
X137449938Y-62408297D01*
X137421531Y-62397563D01*
X137298372Y-62351025D01*
X137294851Y-62350141D01*
X137294846Y-62350139D01*
X137107694Y-62303130D01*
X136982343Y-62271644D01*
X136943179Y-62266488D01*
X136662889Y-62229587D01*
X136662881Y-62229586D01*
X136659285Y-62229113D01*
X136524187Y-62226991D01*
X136337122Y-62224052D01*
X136337118Y-62224052D01*
X136333480Y-62223995D01*
X136329866Y-62224356D01*
X136329860Y-62224356D01*
X136101901Y-62247110D01*
X136009245Y-62256358D01*
X135858962Y-62289125D01*
X135727057Y-62317885D01*
X135690879Y-62325773D01*
X135687452Y-62326946D01*
X135687446Y-62326948D01*
X135386033Y-62430145D01*
X135386028Y-62430147D01*
X135382602Y-62431320D01*
X135379334Y-62432879D01*
X135379326Y-62432882D01*
X135274789Y-62482744D01*
X135088498Y-62571600D01*
X134997454Y-62628712D01*
X134929121Y-62647966D01*
X134861223Y-62627220D01*
X134815320Y-62573059D01*
X134804500Y-62521974D01*
X134804500Y-61656384D01*
X134824502Y-61588263D01*
X134846599Y-61562381D01*
X134863243Y-61547526D01*
X134863245Y-61547524D01*
X134866735Y-61544409D01*
X135033105Y-61344371D01*
X135168080Y-61121939D01*
X135169890Y-61117623D01*
X135266886Y-60886314D01*
X135266888Y-60886309D01*
X135268695Y-60881999D01*
X135271061Y-60872685D01*
X135331586Y-60634362D01*
X135332739Y-60629823D01*
X135354500Y-60413714D01*
X135354500Y-59816000D01*
X135374502Y-59747879D01*
X135428158Y-59701386D01*
X135480500Y-59690000D01*
X137331932Y-59690000D01*
X137400053Y-59710002D01*
G37*
G04 #@! TD.AperFunction*
M02*
