G04 #@! TF.GenerationSoftware,KiCad,Pcbnew,(5.99.0-12896-g1860893d63)*
G04 #@! TF.CreationDate,2021-12-10T21:36:47+01:00*
G04 #@! TF.ProjectId,HP_44491A_to_UTP_v2,48505f34-3434-4393-9141-5f746f5f5554,rev?*
G04 #@! TF.SameCoordinates,Original*
G04 #@! TF.FileFunction,Profile,NP*
%FSLAX46Y46*%
G04 Gerber Fmt 4.6, Leading zero omitted, Abs format (unit mm)*
G04 Created by KiCad (PCBNEW (5.99.0-12896-g1860893d63)) date 2021-12-10 21:36:47*
%MOMM*%
%LPD*%
G01*
G04 APERTURE LIST*
G04 #@! TA.AperFunction,Profile*
%ADD10C,0.120000*%
G04 #@! TD*
G04 APERTURE END LIST*
D10*
X90596000Y-82000000D02*
X175596000Y-82000000D01*
X90596000Y-60526000D02*
X90596000Y-82000000D01*
X175596000Y-60526000D02*
X175596000Y-82000000D01*
X146206000Y-30826000D02*
X146206000Y-23126000D01*
X142096000Y-55226000D02*
X158096000Y-55226000D01*
X90596000Y-23126000D02*
X92226000Y-23126000D01*
X108106000Y-30826000D02*
X108106000Y-23126000D01*
X146206000Y-23126000D02*
X147806000Y-23126000D01*
X133796000Y-31326000D02*
X132426000Y-31326000D01*
X142236000Y-30826000D02*
X142236000Y-17526000D01*
X142096000Y-55226000D02*
X142096000Y-59226000D01*
X114446000Y-23126000D02*
X116046000Y-23126000D01*
X92226000Y-30826000D02*
X92226000Y-23126000D01*
X95396000Y-55226000D02*
X95396000Y-59226000D01*
X175596000Y-30826000D02*
X175596000Y-55226000D01*
X147806000Y-30826000D02*
X147806000Y-23126000D01*
X134296000Y-30826000D02*
X134296000Y-17526000D01*
X106506000Y-23126000D02*
X108106000Y-23126000D01*
X129826000Y-31326000D02*
X128456000Y-31326000D01*
X173496000Y-31326000D02*
X172126000Y-31326000D01*
X170796000Y-55226000D02*
X170796000Y-59226000D01*
X98066000Y-31326000D02*
X96696000Y-31326000D01*
X104136000Y-17526000D02*
X104136000Y-30826000D01*
X112076000Y-17526000D02*
X112076000Y-30826000D01*
X134296000Y-17526000D02*
X135896000Y-17526000D01*
X123986000Y-30826000D02*
X123986000Y-23126000D01*
X130326000Y-23126000D02*
X131926000Y-23126000D01*
X158116000Y-30826000D02*
X158116000Y-17526000D01*
X158096000Y-55226000D02*
X158096000Y-59226000D01*
X165556000Y-31326000D02*
X164186000Y-31326000D01*
X110476000Y-17526000D02*
X112076000Y-17526000D01*
X98566000Y-23126000D02*
X100166000Y-23126000D01*
X126356000Y-30826000D02*
X126356000Y-17526000D01*
X108096000Y-59226000D02*
X124096000Y-59226000D01*
X167656000Y-17526000D02*
X167656000Y-30826000D01*
X154146000Y-23126000D02*
X155746000Y-23126000D01*
X108096000Y-55226000D02*
X124096000Y-55226000D01*
X94096000Y-31326000D02*
X92726000Y-31326000D01*
X124096000Y-55226000D02*
X124096000Y-59226000D01*
X108096000Y-55226000D02*
X108096000Y-59226000D01*
X94596000Y-17526000D02*
X96196000Y-17526000D01*
X122386000Y-23126000D02*
X123986000Y-23126000D01*
X120016000Y-17526000D02*
X120016000Y-30826000D01*
X102036000Y-31326000D02*
X100666000Y-31326000D01*
X145706000Y-31326000D02*
X144336000Y-31326000D01*
X90596000Y-59226000D02*
X95396000Y-59226000D01*
X149676000Y-31326000D02*
X148306000Y-31326000D01*
X171626000Y-30826000D02*
X171626000Y-23126000D01*
X117916000Y-31326000D02*
X116546000Y-31326000D01*
X150176000Y-17526000D02*
X151776000Y-17526000D01*
X158116000Y-17526000D02*
X159716000Y-17526000D01*
X154146000Y-30826000D02*
X154146000Y-23126000D01*
X141736000Y-31326000D02*
X140366000Y-31326000D01*
X110476000Y-30826000D02*
X110476000Y-17526000D01*
X162086000Y-23126000D02*
X163686000Y-23126000D01*
X127956000Y-17526000D02*
X127956000Y-30826000D01*
X150176000Y-30826000D02*
X150176000Y-17526000D01*
X118416000Y-30826000D02*
X118416000Y-17526000D01*
X175596000Y-59226000D02*
X175596000Y-60526000D01*
X175596000Y-55226000D02*
X170796000Y-55226000D01*
X170026000Y-23126000D02*
X171626000Y-23126000D01*
X122386000Y-30826000D02*
X122386000Y-23126000D01*
X163686000Y-30826000D02*
X163686000Y-23126000D01*
X106006000Y-31326000D02*
X104636000Y-31326000D01*
X159716000Y-17526000D02*
X159716000Y-30826000D01*
X143836000Y-17526000D02*
X143836000Y-30826000D01*
X153646000Y-31326000D02*
X152276000Y-31326000D01*
X157616000Y-31326000D02*
X156246000Y-31326000D01*
X139866000Y-30826000D02*
X139866000Y-23126000D01*
X96196000Y-17526000D02*
X96196000Y-30826000D01*
X102536000Y-30826000D02*
X102536000Y-17526000D01*
X125856000Y-31326000D02*
X124486000Y-31326000D01*
X90596000Y-30826000D02*
X90596000Y-23126000D01*
X135896000Y-17526000D02*
X135896000Y-30826000D01*
X118416000Y-17526000D02*
X120016000Y-17526000D01*
X166056000Y-17526000D02*
X167656000Y-17526000D01*
X173996000Y-30826000D02*
X173996000Y-17526000D01*
X100166000Y-30826000D02*
X100166000Y-23126000D01*
X94596000Y-30826000D02*
X94596000Y-17526000D01*
X113946000Y-31326000D02*
X112576000Y-31326000D01*
X155746000Y-30826000D02*
X155746000Y-23126000D01*
X90596000Y-30826000D02*
X90596000Y-55226000D01*
X126356000Y-17526000D02*
X127956000Y-17526000D01*
X98566000Y-30826000D02*
X98566000Y-23126000D01*
X130326000Y-30826000D02*
X130326000Y-23126000D01*
X151776000Y-17526000D02*
X151776000Y-30826000D01*
X173996000Y-17526000D02*
X175596000Y-17526000D01*
X170796000Y-59226000D02*
X175596000Y-59226000D01*
X162086000Y-30826000D02*
X162086000Y-23126000D01*
X175596000Y-17526000D02*
X175596000Y-30826000D01*
X137766000Y-31326000D02*
X136396000Y-31326000D01*
X90596000Y-59226000D02*
X90596000Y-60526000D01*
X170026000Y-30826000D02*
X170026000Y-23126000D01*
X142236000Y-17526000D02*
X143836000Y-17526000D01*
X138266000Y-30826000D02*
X138266000Y-23126000D01*
X90596000Y-55226000D02*
X95396000Y-55226000D01*
X166056000Y-30826000D02*
X166056000Y-17526000D01*
X114446000Y-30826000D02*
X114446000Y-23126000D01*
X142096000Y-59226000D02*
X158096000Y-59226000D01*
X131926000Y-30826000D02*
X131926000Y-23126000D01*
X121886000Y-31326000D02*
X120516000Y-31326000D01*
X169526000Y-31326000D02*
X168156000Y-31326000D01*
X138266000Y-23126000D02*
X139866000Y-23126000D01*
X106506000Y-30826000D02*
X106506000Y-23126000D01*
X102536000Y-17526000D02*
X104136000Y-17526000D01*
X109976000Y-31326000D02*
X108606000Y-31326000D01*
X116046000Y-30826000D02*
X116046000Y-23126000D01*
X161586000Y-31326000D02*
X160216000Y-31326000D01*
X139866000Y-30826000D02*
G75*
G03*
X140366000Y-31326000I500001J1D01*
G01*
X131926000Y-30826000D02*
G75*
G03*
X132426000Y-31326000I500001J1D01*
G01*
X149676000Y-31326000D02*
G75*
G03*
X150176000Y-30826000I-1J500001D01*
G01*
X157616000Y-31326000D02*
G75*
G03*
X158116000Y-30826000I-1J500001D01*
G01*
X147806000Y-30826000D02*
G75*
G03*
X148306000Y-31326000I500001J1D01*
G01*
X173496000Y-31326000D02*
G75*
G03*
X173996000Y-30826000I-1J500001D01*
G01*
X163686000Y-30826000D02*
G75*
G03*
X164186000Y-31326000I500001J1D01*
G01*
X145706000Y-31326000D02*
G75*
G03*
X146206000Y-30826000I-1J500001D01*
G01*
X133796000Y-31326000D02*
G75*
G03*
X134296000Y-30826000I-1J500001D01*
G01*
X123986000Y-30826000D02*
G75*
G03*
X124486000Y-31326000I500001J1D01*
G01*
X112076000Y-30826000D02*
G75*
G03*
X112576000Y-31326000I500001J1D01*
G01*
X117916000Y-31326000D02*
G75*
G03*
X118416000Y-30826000I-1J500001D01*
G01*
X121886000Y-31326000D02*
G75*
G03*
X122386000Y-30826000I-1J500001D01*
G01*
X96196000Y-30826000D02*
G75*
G03*
X96696000Y-31326000I500001J1D01*
G01*
X129826000Y-31326000D02*
G75*
G03*
X130326000Y-30826000I-1J500001D01*
G01*
X98066000Y-31326000D02*
G75*
G03*
X98566000Y-30826000I-1J500001D01*
G01*
X108106000Y-30826000D02*
G75*
G03*
X108606000Y-31326000I500001J1D01*
G01*
X116046000Y-30826000D02*
G75*
G03*
X116546000Y-31326000I500001J1D01*
G01*
X165556000Y-31326000D02*
G75*
G03*
X166056000Y-30826000I-1J500001D01*
G01*
X127956000Y-30826000D02*
G75*
G03*
X128456000Y-31326000I500001J1D01*
G01*
X100166000Y-30826000D02*
G75*
G03*
X100666000Y-31326000I500001J1D01*
G01*
X167656000Y-30826000D02*
G75*
G03*
X168156000Y-31326000I500001J1D01*
G01*
X159716000Y-30826000D02*
G75*
G03*
X160216000Y-31326000I500001J1D01*
G01*
X171626000Y-30826000D02*
G75*
G03*
X172126000Y-31326000I500001J1D01*
G01*
X143836000Y-30826000D02*
G75*
G03*
X144336000Y-31326000I500001J1D01*
G01*
X151776000Y-30826000D02*
G75*
G03*
X152276000Y-31326000I500001J1D01*
G01*
X109976000Y-31326000D02*
G75*
G03*
X110476000Y-30826000I-1J500001D01*
G01*
X125856000Y-31326000D02*
G75*
G03*
X126356000Y-30826000I-1J500001D01*
G01*
X104136000Y-30826000D02*
G75*
G03*
X104636000Y-31326000I500001J1D01*
G01*
X141736000Y-31326000D02*
G75*
G03*
X142236000Y-30826000I-1J500001D01*
G01*
X169526000Y-31326000D02*
G75*
G03*
X170026000Y-30826000I-1J500001D01*
G01*
X92226000Y-30826000D02*
G75*
G03*
X92726000Y-31326000I500001J1D01*
G01*
X120016000Y-30826000D02*
G75*
G03*
X120516000Y-31326000I500001J1D01*
G01*
X94096000Y-31326000D02*
G75*
G03*
X94596000Y-30826000I-1J500001D01*
G01*
X113946000Y-31326000D02*
G75*
G03*
X114446000Y-30826000I-1J500001D01*
G01*
X155746000Y-30826000D02*
G75*
G03*
X156246000Y-31326000I500001J1D01*
G01*
X137766000Y-31326000D02*
G75*
G03*
X138266000Y-30826000I-1J500001D01*
G01*
X161586000Y-31326000D02*
G75*
G03*
X162086000Y-30826000I-1J500001D01*
G01*
X106006000Y-31326000D02*
G75*
G03*
X106506000Y-30826000I-1J500001D01*
G01*
X153646000Y-31326000D02*
G75*
G03*
X154146000Y-30826000I-1J500001D01*
G01*
X102036000Y-31326000D02*
G75*
G03*
X102536000Y-30826000I-1J500001D01*
G01*
X135896000Y-30826000D02*
G75*
G03*
X136396000Y-31326000I500001J1D01*
G01*
M02*
