%FSLAX45Y45*%
G04 Gerber Fmt 4.5, Leading zero omitted, Abs format (unit mm)*
G04 Created by KiCad (PCBNEW (5.99.0-12896-g1860893d63)) date 2021-12-10 21:36:47*
%MOMM*%
%LPD*%
G01*
G04 APERTURE LIST*
%TA.AperFunction,Profile*%
%ADD10C,0.120000*%
%TD*%
%ADD11C,0.200000*%
%ADD12C,0.345000*%
%ADD13C,0.550000*%
G04 APERTURE END LIST*
D10*
X9059600Y-8200000D02*
X17559600Y-8200000D01*
X9059600Y-6052600D02*
X9059600Y-8200000D01*
X17559600Y-6052600D02*
X17559600Y-8200000D01*
D11*
D12*
X11669300Y-6337280D02*
X12014300Y-6682280D01*
X12014300Y-6337280D02*
X11669300Y-6682280D01*
X11669300Y-7480280D02*
X12014300Y-7825280D01*
X12014300Y-7480280D02*
X11669300Y-7825280D01*
X13472700Y-6332680D02*
X13817700Y-6677680D01*
X13817700Y-6332680D02*
X13472700Y-6677680D01*
X13472700Y-7475680D02*
X13817700Y-7820680D01*
X13817700Y-7475680D02*
X13472700Y-7820680D01*
X16406400Y-6319500D02*
X16751400Y-6664500D01*
X16751400Y-6319500D02*
X16406400Y-6664500D01*
X16406400Y-7462500D02*
X16751400Y-7807500D01*
X16751400Y-7462500D02*
X16406400Y-7807500D01*
D13*
X11884600Y-4802600D02*
G75*
G03*
X11884600Y-4802600I-275000J0D01*
G01*
X15284600Y-4802600D02*
G75*
G03*
X15284600Y-4802600I-275000J0D01*
G01*
D11*
X9311219Y-8516476D02*
X9311219Y-8316476D01*
X9358838Y-8316476D01*
X9387410Y-8326000D01*
X9406457Y-8345048D01*
X9415981Y-8364095D01*
X9425505Y-8402190D01*
X9425505Y-8430762D01*
X9415981Y-8468857D01*
X9406457Y-8487905D01*
X9387410Y-8506952D01*
X9358838Y-8516476D01*
X9311219Y-8516476D01*
X9511219Y-8516476D02*
X9511219Y-8383143D01*
X9511219Y-8421238D02*
X9520743Y-8402190D01*
X9530267Y-8392667D01*
X9549314Y-8383143D01*
X9568362Y-8383143D01*
X9635029Y-8516476D02*
X9635029Y-8383143D01*
X9635029Y-8316476D02*
X9625505Y-8326000D01*
X9635029Y-8335524D01*
X9644552Y-8326000D01*
X9635029Y-8316476D01*
X9635029Y-8335524D01*
X9758838Y-8516476D02*
X9739790Y-8506952D01*
X9730267Y-8487905D01*
X9730267Y-8316476D01*
X9863600Y-8516476D02*
X9844552Y-8506952D01*
X9835029Y-8487905D01*
X9835029Y-8316476D01*
X10092171Y-8516476D02*
X10092171Y-8316476D01*
X10158838Y-8459333D01*
X10225505Y-8316476D01*
X10225505Y-8516476D01*
X10406457Y-8516476D02*
X10406457Y-8411714D01*
X10396933Y-8392667D01*
X10377886Y-8383143D01*
X10339790Y-8383143D01*
X10320743Y-8392667D01*
X10406457Y-8506952D02*
X10387410Y-8516476D01*
X10339790Y-8516476D01*
X10320743Y-8506952D01*
X10311219Y-8487905D01*
X10311219Y-8468857D01*
X10320743Y-8449810D01*
X10339790Y-8440286D01*
X10387410Y-8440286D01*
X10406457Y-8430762D01*
X10501695Y-8383143D02*
X10501695Y-8583143D01*
X10501695Y-8392667D02*
X10520743Y-8383143D01*
X10558838Y-8383143D01*
X10577886Y-8392667D01*
X10587410Y-8402190D01*
X10596933Y-8421238D01*
X10596933Y-8478381D01*
X10587410Y-8497429D01*
X10577886Y-8506952D01*
X10558838Y-8516476D01*
X10520743Y-8516476D01*
X10501695Y-8506952D01*
X10682648Y-8497429D02*
X10692171Y-8506952D01*
X10682648Y-8516476D01*
X10673124Y-8506952D01*
X10682648Y-8497429D01*
X10682648Y-8516476D01*
X10682648Y-8392667D02*
X10692171Y-8402190D01*
X10682648Y-8411714D01*
X10673124Y-8402190D01*
X10682648Y-8392667D01*
X10682648Y-8411714D01*
X8853600Y-8746000D02*
X9053600Y-8946000D01*
X9053600Y-8746000D02*
X8853600Y-8946000D01*
X9292171Y-8736476D02*
X9415981Y-8736476D01*
X9349314Y-8812667D01*
X9377886Y-8812667D01*
X9396933Y-8822190D01*
X9406457Y-8831714D01*
X9415981Y-8850762D01*
X9415981Y-8898381D01*
X9406457Y-8917429D01*
X9396933Y-8926952D01*
X9377886Y-8936476D01*
X9320743Y-8936476D01*
X9301695Y-8926952D01*
X9292171Y-8917429D01*
X9501695Y-8917429D02*
X9511219Y-8926952D01*
X9501695Y-8936476D01*
X9492171Y-8926952D01*
X9501695Y-8917429D01*
X9501695Y-8936476D01*
X9682648Y-8803143D02*
X9682648Y-8936476D01*
X9635029Y-8726952D02*
X9587410Y-8869810D01*
X9711219Y-8869810D01*
X9882648Y-8736476D02*
X9787410Y-8736476D01*
X9777886Y-8831714D01*
X9787410Y-8822190D01*
X9806457Y-8812667D01*
X9854076Y-8812667D01*
X9873124Y-8822190D01*
X9882648Y-8831714D01*
X9892171Y-8850762D01*
X9892171Y-8898381D01*
X9882648Y-8917429D01*
X9873124Y-8926952D01*
X9854076Y-8936476D01*
X9806457Y-8936476D01*
X9787410Y-8926952D01*
X9777886Y-8917429D01*
X10015981Y-8736476D02*
X10035029Y-8736476D01*
X10054076Y-8746000D01*
X10063600Y-8755524D01*
X10073124Y-8774571D01*
X10082648Y-8812667D01*
X10082648Y-8860286D01*
X10073124Y-8898381D01*
X10063600Y-8917429D01*
X10054076Y-8926952D01*
X10035029Y-8936476D01*
X10015981Y-8936476D01*
X9996933Y-8926952D01*
X9987410Y-8917429D01*
X9977886Y-8898381D01*
X9968362Y-8860286D01*
X9968362Y-8812667D01*
X9977886Y-8774571D01*
X9987410Y-8755524D01*
X9996933Y-8746000D01*
X10015981Y-8736476D01*
X10168362Y-8936476D02*
X10168362Y-8803143D01*
X10168362Y-8822190D02*
X10177886Y-8812667D01*
X10196933Y-8803143D01*
X10225505Y-8803143D01*
X10244552Y-8812667D01*
X10254076Y-8831714D01*
X10254076Y-8936476D01*
X10254076Y-8831714D02*
X10263600Y-8812667D01*
X10282648Y-8803143D01*
X10311219Y-8803143D01*
X10330267Y-8812667D01*
X10339790Y-8831714D01*
X10339790Y-8936476D01*
X10435029Y-8936476D02*
X10435029Y-8803143D01*
X10435029Y-8822190D02*
X10444552Y-8812667D01*
X10463600Y-8803143D01*
X10492171Y-8803143D01*
X10511219Y-8812667D01*
X10520743Y-8831714D01*
X10520743Y-8936476D01*
X10520743Y-8831714D02*
X10530267Y-8812667D01*
X10549314Y-8803143D01*
X10577886Y-8803143D01*
X10596933Y-8812667D01*
X10606457Y-8831714D01*
X10606457Y-8936476D01*
X10996933Y-8726952D02*
X10825505Y-8984095D01*
X11254076Y-8736476D02*
X11273124Y-8736476D01*
X11292171Y-8746000D01*
X11301695Y-8755524D01*
X11311219Y-8774571D01*
X11320743Y-8812667D01*
X11320743Y-8860286D01*
X11311219Y-8898381D01*
X11301695Y-8917429D01*
X11292171Y-8926952D01*
X11273124Y-8936476D01*
X11254076Y-8936476D01*
X11235028Y-8926952D01*
X11225505Y-8917429D01*
X11215981Y-8898381D01*
X11206457Y-8860286D01*
X11206457Y-8812667D01*
X11215981Y-8774571D01*
X11225505Y-8755524D01*
X11235028Y-8746000D01*
X11254076Y-8736476D01*
X11406457Y-8917429D02*
X11415981Y-8926952D01*
X11406457Y-8936476D01*
X11396933Y-8926952D01*
X11406457Y-8917429D01*
X11406457Y-8936476D01*
X11606457Y-8936476D02*
X11492171Y-8936476D01*
X11549314Y-8936476D02*
X11549314Y-8736476D01*
X11530267Y-8765048D01*
X11511219Y-8784095D01*
X11492171Y-8793619D01*
X11673124Y-8736476D02*
X11796933Y-8736476D01*
X11730267Y-8812667D01*
X11758838Y-8812667D01*
X11777886Y-8822190D01*
X11787409Y-8831714D01*
X11796933Y-8850762D01*
X11796933Y-8898381D01*
X11787409Y-8917429D01*
X11777886Y-8926952D01*
X11758838Y-8936476D01*
X11701695Y-8936476D01*
X11682648Y-8926952D01*
X11673124Y-8917429D01*
X11977886Y-8736476D02*
X11882648Y-8736476D01*
X11873124Y-8831714D01*
X11882648Y-8822190D01*
X11901695Y-8812667D01*
X11949314Y-8812667D01*
X11968362Y-8822190D01*
X11977886Y-8831714D01*
X11987409Y-8850762D01*
X11987409Y-8898381D01*
X11977886Y-8917429D01*
X11968362Y-8926952D01*
X11949314Y-8936476D01*
X11901695Y-8936476D01*
X11882648Y-8926952D01*
X11873124Y-8917429D01*
X12101695Y-8822190D02*
X12082648Y-8812667D01*
X12073124Y-8803143D01*
X12063600Y-8784095D01*
X12063600Y-8774571D01*
X12073124Y-8755524D01*
X12082648Y-8746000D01*
X12101695Y-8736476D01*
X12139790Y-8736476D01*
X12158838Y-8746000D01*
X12168362Y-8755524D01*
X12177886Y-8774571D01*
X12177886Y-8784095D01*
X12168362Y-8803143D01*
X12158838Y-8812667D01*
X12139790Y-8822190D01*
X12101695Y-8822190D01*
X12082648Y-8831714D01*
X12073124Y-8841238D01*
X12063600Y-8860286D01*
X12063600Y-8898381D01*
X12073124Y-8917429D01*
X12082648Y-8926952D01*
X12101695Y-8936476D01*
X12139790Y-8936476D01*
X12158838Y-8926952D01*
X12168362Y-8917429D01*
X12177886Y-8898381D01*
X12177886Y-8860286D01*
X12168362Y-8841238D01*
X12158838Y-8831714D01*
X12139790Y-8822190D01*
X12254076Y-8736476D02*
X12254076Y-8774571D01*
X12330267Y-8736476D02*
X12330267Y-8774571D01*
X12625505Y-9012667D02*
X12615981Y-9003143D01*
X12596933Y-8974571D01*
X12587409Y-8955524D01*
X12577886Y-8926952D01*
X12568362Y-8879333D01*
X12568362Y-8841238D01*
X12577886Y-8793619D01*
X12587409Y-8765048D01*
X12596933Y-8746000D01*
X12615981Y-8717429D01*
X12625505Y-8707905D01*
X12787409Y-8736476D02*
X12749314Y-8736476D01*
X12730267Y-8746000D01*
X12720743Y-8755524D01*
X12701695Y-8784095D01*
X12692171Y-8822190D01*
X12692171Y-8898381D01*
X12701695Y-8917429D01*
X12711219Y-8926952D01*
X12730267Y-8936476D01*
X12768362Y-8936476D01*
X12787409Y-8926952D01*
X12796933Y-8917429D01*
X12806457Y-8898381D01*
X12806457Y-8850762D01*
X12796933Y-8831714D01*
X12787409Y-8822190D01*
X12768362Y-8812667D01*
X12730267Y-8812667D01*
X12711219Y-8822190D01*
X12701695Y-8831714D01*
X12692171Y-8850762D01*
X13044552Y-8936476D02*
X13044552Y-8736476D01*
X13130267Y-8936476D02*
X13130267Y-8831714D01*
X13120743Y-8812667D01*
X13101695Y-8803143D01*
X13073124Y-8803143D01*
X13054076Y-8812667D01*
X13044552Y-8822190D01*
X13254076Y-8936476D02*
X13235028Y-8926952D01*
X13225505Y-8917429D01*
X13215981Y-8898381D01*
X13215981Y-8841238D01*
X13225505Y-8822190D01*
X13235028Y-8812667D01*
X13254076Y-8803143D01*
X13282648Y-8803143D01*
X13301695Y-8812667D01*
X13311219Y-8822190D01*
X13320743Y-8841238D01*
X13320743Y-8898381D01*
X13311219Y-8917429D01*
X13301695Y-8926952D01*
X13282648Y-8936476D01*
X13254076Y-8936476D01*
X13435028Y-8936476D02*
X13415981Y-8926952D01*
X13406457Y-8907905D01*
X13406457Y-8736476D01*
X13587409Y-8926952D02*
X13568362Y-8936476D01*
X13530267Y-8936476D01*
X13511219Y-8926952D01*
X13501695Y-8907905D01*
X13501695Y-8831714D01*
X13511219Y-8812667D01*
X13530267Y-8803143D01*
X13568362Y-8803143D01*
X13587409Y-8812667D01*
X13596933Y-8831714D01*
X13596933Y-8850762D01*
X13501695Y-8869810D01*
X13673124Y-8926952D02*
X13692171Y-8936476D01*
X13730267Y-8936476D01*
X13749314Y-8926952D01*
X13758838Y-8907905D01*
X13758838Y-8898381D01*
X13749314Y-8879333D01*
X13730267Y-8869810D01*
X13701695Y-8869810D01*
X13682648Y-8860286D01*
X13673124Y-8841238D01*
X13673124Y-8831714D01*
X13682648Y-8812667D01*
X13701695Y-8803143D01*
X13730267Y-8803143D01*
X13749314Y-8812667D01*
X13825505Y-9012667D02*
X13835028Y-9003143D01*
X13854076Y-8974571D01*
X13863600Y-8955524D01*
X13873124Y-8926952D01*
X13882648Y-8879333D01*
X13882648Y-8841238D01*
X13873124Y-8793619D01*
X13863600Y-8765048D01*
X13854076Y-8746000D01*
X13835028Y-8717429D01*
X13825505Y-8707905D01*
X14187409Y-9012667D02*
X14177886Y-9003143D01*
X14158838Y-8974571D01*
X14149314Y-8955524D01*
X14139790Y-8926952D01*
X14130267Y-8879333D01*
X14130267Y-8841238D01*
X14139790Y-8793619D01*
X14149314Y-8765048D01*
X14158838Y-8746000D01*
X14177886Y-8717429D01*
X14187409Y-8707905D01*
X14263600Y-8803143D02*
X14263600Y-8936476D01*
X14263600Y-8822190D02*
X14273124Y-8812667D01*
X14292171Y-8803143D01*
X14320743Y-8803143D01*
X14339790Y-8812667D01*
X14349314Y-8831714D01*
X14349314Y-8936476D01*
X14473124Y-8936476D02*
X14454076Y-8926952D01*
X14444552Y-8917429D01*
X14435028Y-8898381D01*
X14435028Y-8841238D01*
X14444552Y-8822190D01*
X14454076Y-8812667D01*
X14473124Y-8803143D01*
X14501695Y-8803143D01*
X14520743Y-8812667D01*
X14530267Y-8822190D01*
X14539790Y-8841238D01*
X14539790Y-8898381D01*
X14530267Y-8917429D01*
X14520743Y-8926952D01*
X14501695Y-8936476D01*
X14473124Y-8936476D01*
X14596933Y-8803143D02*
X14673124Y-8803143D01*
X14625505Y-8736476D02*
X14625505Y-8907905D01*
X14635028Y-8926952D01*
X14654076Y-8936476D01*
X14673124Y-8936476D01*
X14892171Y-8803143D02*
X14892171Y-9003143D01*
X14892171Y-8812667D02*
X14911219Y-8803143D01*
X14949314Y-8803143D01*
X14968362Y-8812667D01*
X14977886Y-8822190D01*
X14987409Y-8841238D01*
X14987409Y-8898381D01*
X14977886Y-8917429D01*
X14968362Y-8926952D01*
X14949314Y-8936476D01*
X14911219Y-8936476D01*
X14892171Y-8926952D01*
X15101695Y-8936476D02*
X15082648Y-8926952D01*
X15073124Y-8907905D01*
X15073124Y-8736476D01*
X15263600Y-8936476D02*
X15263600Y-8831714D01*
X15254076Y-8812667D01*
X15235028Y-8803143D01*
X15196933Y-8803143D01*
X15177886Y-8812667D01*
X15263600Y-8926952D02*
X15244552Y-8936476D01*
X15196933Y-8936476D01*
X15177886Y-8926952D01*
X15168362Y-8907905D01*
X15168362Y-8888857D01*
X15177886Y-8869810D01*
X15196933Y-8860286D01*
X15244552Y-8860286D01*
X15263600Y-8850762D01*
X15330267Y-8803143D02*
X15406457Y-8803143D01*
X15358838Y-8736476D02*
X15358838Y-8907905D01*
X15368362Y-8926952D01*
X15387409Y-8936476D01*
X15406457Y-8936476D01*
X15549314Y-8926952D02*
X15530267Y-8936476D01*
X15492171Y-8936476D01*
X15473124Y-8926952D01*
X15463600Y-8907905D01*
X15463600Y-8831714D01*
X15473124Y-8812667D01*
X15492171Y-8803143D01*
X15530267Y-8803143D01*
X15549314Y-8812667D01*
X15558838Y-8831714D01*
X15558838Y-8850762D01*
X15463600Y-8869810D01*
X15730267Y-8936476D02*
X15730267Y-8736476D01*
X15730267Y-8926952D02*
X15711219Y-8936476D01*
X15673124Y-8936476D01*
X15654076Y-8926952D01*
X15644552Y-8917429D01*
X15635028Y-8898381D01*
X15635028Y-8841238D01*
X15644552Y-8822190D01*
X15654076Y-8812667D01*
X15673124Y-8803143D01*
X15711219Y-8803143D01*
X15730267Y-8812667D01*
X15806457Y-9012667D02*
X15815981Y-9003143D01*
X15835028Y-8974571D01*
X15844552Y-8955524D01*
X15854076Y-8926952D01*
X15863600Y-8879333D01*
X15863600Y-8841238D01*
X15854076Y-8793619D01*
X15844552Y-8765048D01*
X15835028Y-8746000D01*
X15815981Y-8717429D01*
X15806457Y-8707905D01*
X9053600Y-9166000D02*
G75*
G03*
X9053600Y-9166000I-100000J0D01*
G01*
X9406457Y-9056476D02*
X9311219Y-9056476D01*
X9301695Y-9151714D01*
X9311219Y-9142190D01*
X9330267Y-9132667D01*
X9377886Y-9132667D01*
X9396933Y-9142190D01*
X9406457Y-9151714D01*
X9415981Y-9170762D01*
X9415981Y-9218381D01*
X9406457Y-9237429D01*
X9396933Y-9246952D01*
X9377886Y-9256476D01*
X9330267Y-9256476D01*
X9311219Y-9246952D01*
X9301695Y-9237429D01*
X9501695Y-9237429D02*
X9511219Y-9246952D01*
X9501695Y-9256476D01*
X9492171Y-9246952D01*
X9501695Y-9237429D01*
X9501695Y-9256476D01*
X9692171Y-9056476D02*
X9596933Y-9056476D01*
X9587410Y-9151714D01*
X9596933Y-9142190D01*
X9615981Y-9132667D01*
X9663600Y-9132667D01*
X9682648Y-9142190D01*
X9692171Y-9151714D01*
X9701695Y-9170762D01*
X9701695Y-9218381D01*
X9692171Y-9237429D01*
X9682648Y-9246952D01*
X9663600Y-9256476D01*
X9615981Y-9256476D01*
X9596933Y-9246952D01*
X9587410Y-9237429D01*
X9825505Y-9056476D02*
X9844552Y-9056476D01*
X9863600Y-9066000D01*
X9873124Y-9075524D01*
X9882648Y-9094571D01*
X9892171Y-9132667D01*
X9892171Y-9180286D01*
X9882648Y-9218381D01*
X9873124Y-9237429D01*
X9863600Y-9246952D01*
X9844552Y-9256476D01*
X9825505Y-9256476D01*
X9806457Y-9246952D01*
X9796933Y-9237429D01*
X9787410Y-9218381D01*
X9777886Y-9180286D01*
X9777886Y-9132667D01*
X9787410Y-9094571D01*
X9796933Y-9075524D01*
X9806457Y-9066000D01*
X9825505Y-9056476D01*
X10015981Y-9056476D02*
X10035029Y-9056476D01*
X10054076Y-9066000D01*
X10063600Y-9075524D01*
X10073124Y-9094571D01*
X10082648Y-9132667D01*
X10082648Y-9180286D01*
X10073124Y-9218381D01*
X10063600Y-9237429D01*
X10054076Y-9246952D01*
X10035029Y-9256476D01*
X10015981Y-9256476D01*
X9996933Y-9246952D01*
X9987410Y-9237429D01*
X9977886Y-9218381D01*
X9968362Y-9180286D01*
X9968362Y-9132667D01*
X9977886Y-9094571D01*
X9987410Y-9075524D01*
X9996933Y-9066000D01*
X10015981Y-9056476D01*
X10168362Y-9256476D02*
X10168362Y-9123143D01*
X10168362Y-9142190D02*
X10177886Y-9132667D01*
X10196933Y-9123143D01*
X10225505Y-9123143D01*
X10244552Y-9132667D01*
X10254076Y-9151714D01*
X10254076Y-9256476D01*
X10254076Y-9151714D02*
X10263600Y-9132667D01*
X10282648Y-9123143D01*
X10311219Y-9123143D01*
X10330267Y-9132667D01*
X10339790Y-9151714D01*
X10339790Y-9256476D01*
X10435029Y-9256476D02*
X10435029Y-9123143D01*
X10435029Y-9142190D02*
X10444552Y-9132667D01*
X10463600Y-9123143D01*
X10492171Y-9123143D01*
X10511219Y-9132667D01*
X10520743Y-9151714D01*
X10520743Y-9256476D01*
X10520743Y-9151714D02*
X10530267Y-9132667D01*
X10549314Y-9123143D01*
X10577886Y-9123143D01*
X10596933Y-9132667D01*
X10606457Y-9151714D01*
X10606457Y-9256476D01*
X10996933Y-9046952D02*
X10825505Y-9304095D01*
X11254076Y-9056476D02*
X11273124Y-9056476D01*
X11292171Y-9066000D01*
X11301695Y-9075524D01*
X11311219Y-9094571D01*
X11320743Y-9132667D01*
X11320743Y-9180286D01*
X11311219Y-9218381D01*
X11301695Y-9237429D01*
X11292171Y-9246952D01*
X11273124Y-9256476D01*
X11254076Y-9256476D01*
X11235028Y-9246952D01*
X11225505Y-9237429D01*
X11215981Y-9218381D01*
X11206457Y-9180286D01*
X11206457Y-9132667D01*
X11215981Y-9094571D01*
X11225505Y-9075524D01*
X11235028Y-9066000D01*
X11254076Y-9056476D01*
X11406457Y-9237429D02*
X11415981Y-9246952D01*
X11406457Y-9256476D01*
X11396933Y-9246952D01*
X11406457Y-9237429D01*
X11406457Y-9256476D01*
X11492171Y-9075524D02*
X11501695Y-9066000D01*
X11520743Y-9056476D01*
X11568362Y-9056476D01*
X11587409Y-9066000D01*
X11596933Y-9075524D01*
X11606457Y-9094571D01*
X11606457Y-9113619D01*
X11596933Y-9142190D01*
X11482648Y-9256476D01*
X11606457Y-9256476D01*
X11796933Y-9256476D02*
X11682648Y-9256476D01*
X11739790Y-9256476D02*
X11739790Y-9056476D01*
X11720743Y-9085048D01*
X11701695Y-9104095D01*
X11682648Y-9113619D01*
X11968362Y-9056476D02*
X11930267Y-9056476D01*
X11911219Y-9066000D01*
X11901695Y-9075524D01*
X11882648Y-9104095D01*
X11873124Y-9142190D01*
X11873124Y-9218381D01*
X11882648Y-9237429D01*
X11892171Y-9246952D01*
X11911219Y-9256476D01*
X11949314Y-9256476D01*
X11968362Y-9246952D01*
X11977886Y-9237429D01*
X11987409Y-9218381D01*
X11987409Y-9170762D01*
X11977886Y-9151714D01*
X11968362Y-9142190D01*
X11949314Y-9132667D01*
X11911219Y-9132667D01*
X11892171Y-9142190D01*
X11882648Y-9151714D01*
X11873124Y-9170762D01*
X12168362Y-9056476D02*
X12073124Y-9056476D01*
X12063600Y-9151714D01*
X12073124Y-9142190D01*
X12092171Y-9132667D01*
X12139790Y-9132667D01*
X12158838Y-9142190D01*
X12168362Y-9151714D01*
X12177886Y-9170762D01*
X12177886Y-9218381D01*
X12168362Y-9237429D01*
X12158838Y-9246952D01*
X12139790Y-9256476D01*
X12092171Y-9256476D01*
X12073124Y-9246952D01*
X12063600Y-9237429D01*
X12254076Y-9056476D02*
X12254076Y-9094571D01*
X12330267Y-9056476D02*
X12330267Y-9094571D01*
X12625505Y-9332667D02*
X12615981Y-9323143D01*
X12596933Y-9294571D01*
X12587409Y-9275524D01*
X12577886Y-9246952D01*
X12568362Y-9199333D01*
X12568362Y-9161238D01*
X12577886Y-9113619D01*
X12587409Y-9085048D01*
X12596933Y-9066000D01*
X12615981Y-9037429D01*
X12625505Y-9027905D01*
X12692171Y-9075524D02*
X12701695Y-9066000D01*
X12720743Y-9056476D01*
X12768362Y-9056476D01*
X12787409Y-9066000D01*
X12796933Y-9075524D01*
X12806457Y-9094571D01*
X12806457Y-9113619D01*
X12796933Y-9142190D01*
X12682648Y-9256476D01*
X12806457Y-9256476D01*
X13044552Y-9256476D02*
X13044552Y-9056476D01*
X13130267Y-9256476D02*
X13130267Y-9151714D01*
X13120743Y-9132667D01*
X13101695Y-9123143D01*
X13073124Y-9123143D01*
X13054076Y-9132667D01*
X13044552Y-9142190D01*
X13254076Y-9256476D02*
X13235028Y-9246952D01*
X13225505Y-9237429D01*
X13215981Y-9218381D01*
X13215981Y-9161238D01*
X13225505Y-9142190D01*
X13235028Y-9132667D01*
X13254076Y-9123143D01*
X13282648Y-9123143D01*
X13301695Y-9132667D01*
X13311219Y-9142190D01*
X13320743Y-9161238D01*
X13320743Y-9218381D01*
X13311219Y-9237429D01*
X13301695Y-9246952D01*
X13282648Y-9256476D01*
X13254076Y-9256476D01*
X13435028Y-9256476D02*
X13415981Y-9246952D01*
X13406457Y-9227905D01*
X13406457Y-9056476D01*
X13587409Y-9246952D02*
X13568362Y-9256476D01*
X13530267Y-9256476D01*
X13511219Y-9246952D01*
X13501695Y-9227905D01*
X13501695Y-9151714D01*
X13511219Y-9132667D01*
X13530267Y-9123143D01*
X13568362Y-9123143D01*
X13587409Y-9132667D01*
X13596933Y-9151714D01*
X13596933Y-9170762D01*
X13501695Y-9189810D01*
X13673124Y-9246952D02*
X13692171Y-9256476D01*
X13730267Y-9256476D01*
X13749314Y-9246952D01*
X13758838Y-9227905D01*
X13758838Y-9218381D01*
X13749314Y-9199333D01*
X13730267Y-9189810D01*
X13701695Y-9189810D01*
X13682648Y-9180286D01*
X13673124Y-9161238D01*
X13673124Y-9151714D01*
X13682648Y-9132667D01*
X13701695Y-9123143D01*
X13730267Y-9123143D01*
X13749314Y-9132667D01*
X13825505Y-9332667D02*
X13835028Y-9323143D01*
X13854076Y-9294571D01*
X13863600Y-9275524D01*
X13873124Y-9246952D01*
X13882648Y-9199333D01*
X13882648Y-9161238D01*
X13873124Y-9113619D01*
X13863600Y-9085048D01*
X13854076Y-9066000D01*
X13835028Y-9037429D01*
X13825505Y-9027905D01*
X14187409Y-9332667D02*
X14177886Y-9323143D01*
X14158838Y-9294571D01*
X14149314Y-9275524D01*
X14139790Y-9246952D01*
X14130267Y-9199333D01*
X14130267Y-9161238D01*
X14139790Y-9113619D01*
X14149314Y-9085048D01*
X14158838Y-9066000D01*
X14177886Y-9037429D01*
X14187409Y-9027905D01*
X14263600Y-9123143D02*
X14263600Y-9256476D01*
X14263600Y-9142190D02*
X14273124Y-9132667D01*
X14292171Y-9123143D01*
X14320743Y-9123143D01*
X14339790Y-9132667D01*
X14349314Y-9151714D01*
X14349314Y-9256476D01*
X14473124Y-9256476D02*
X14454076Y-9246952D01*
X14444552Y-9237429D01*
X14435028Y-9218381D01*
X14435028Y-9161238D01*
X14444552Y-9142190D01*
X14454076Y-9132667D01*
X14473124Y-9123143D01*
X14501695Y-9123143D01*
X14520743Y-9132667D01*
X14530267Y-9142190D01*
X14539790Y-9161238D01*
X14539790Y-9218381D01*
X14530267Y-9237429D01*
X14520743Y-9246952D01*
X14501695Y-9256476D01*
X14473124Y-9256476D01*
X14596933Y-9123143D02*
X14673124Y-9123143D01*
X14625505Y-9056476D02*
X14625505Y-9227905D01*
X14635028Y-9246952D01*
X14654076Y-9256476D01*
X14673124Y-9256476D01*
X14892171Y-9123143D02*
X14892171Y-9323143D01*
X14892171Y-9132667D02*
X14911219Y-9123143D01*
X14949314Y-9123143D01*
X14968362Y-9132667D01*
X14977886Y-9142190D01*
X14987409Y-9161238D01*
X14987409Y-9218381D01*
X14977886Y-9237429D01*
X14968362Y-9246952D01*
X14949314Y-9256476D01*
X14911219Y-9256476D01*
X14892171Y-9246952D01*
X15101695Y-9256476D02*
X15082648Y-9246952D01*
X15073124Y-9227905D01*
X15073124Y-9056476D01*
X15263600Y-9256476D02*
X15263600Y-9151714D01*
X15254076Y-9132667D01*
X15235028Y-9123143D01*
X15196933Y-9123143D01*
X15177886Y-9132667D01*
X15263600Y-9246952D02*
X15244552Y-9256476D01*
X15196933Y-9256476D01*
X15177886Y-9246952D01*
X15168362Y-9227905D01*
X15168362Y-9208857D01*
X15177886Y-9189810D01*
X15196933Y-9180286D01*
X15244552Y-9180286D01*
X15263600Y-9170762D01*
X15330267Y-9123143D02*
X15406457Y-9123143D01*
X15358838Y-9056476D02*
X15358838Y-9227905D01*
X15368362Y-9246952D01*
X15387409Y-9256476D01*
X15406457Y-9256476D01*
X15549314Y-9246952D02*
X15530267Y-9256476D01*
X15492171Y-9256476D01*
X15473124Y-9246952D01*
X15463600Y-9227905D01*
X15463600Y-9151714D01*
X15473124Y-9132667D01*
X15492171Y-9123143D01*
X15530267Y-9123143D01*
X15549314Y-9132667D01*
X15558838Y-9151714D01*
X15558838Y-9170762D01*
X15463600Y-9189810D01*
X15730267Y-9256476D02*
X15730267Y-9056476D01*
X15730267Y-9246952D02*
X15711219Y-9256476D01*
X15673124Y-9256476D01*
X15654076Y-9246952D01*
X15644552Y-9237429D01*
X15635028Y-9218381D01*
X15635028Y-9161238D01*
X15644552Y-9142190D01*
X15654076Y-9132667D01*
X15673124Y-9123143D01*
X15711219Y-9123143D01*
X15730267Y-9132667D01*
X15806457Y-9332667D02*
X15815981Y-9323143D01*
X15835028Y-9294571D01*
X15844552Y-9275524D01*
X15854076Y-9246952D01*
X15863600Y-9199333D01*
X15863600Y-9161238D01*
X15854076Y-9113619D01*
X15844552Y-9085048D01*
X15835028Y-9066000D01*
X15815981Y-9037429D01*
X15806457Y-9027905D01*
M02*
