M48
; DRILL file {KiCad (5.99.0-12896-g1860893d63)} date Fri Dec 10 21:36:47 2021
; FORMAT={-:-/ absolute / metric / decimal}
; #@! TF.CreationDate,2021-12-10T21:36:47+01:00
; #@! TF.GenerationSoftware,Kicad,Pcbnew,(5.99.0-12896-g1860893d63)
; #@! TF.FileFunction,Plated,1,2,PTH
FMAT,2
METRIC
; #@! TA.AperFunction,Plated,PTH,ComponentDrill
T1C0.400
; #@! TA.AperFunction,Plated,PTH,ComponentDrill
T2C0.600
; #@! TA.AperFunction,Plated,PTH,ComponentDrill
T3C0.900
; #@! TA.AperFunction,Plated,PTH,ComponentDrill
T4C1.600
; #@! TA.AperFunction,Plated,PTH,ComponentDrill
T5C6.400
%
G90
G05
T1
X97.942Y-33.274
X101.905Y-33.274
X105.918Y-33.274
X109.83Y-33.274
X113.843Y-33.274
X117.805Y-33.274
X121.768Y-33.274
X125.73Y-33.274
X129.692Y-33.274
X133.655Y-33.274
X137.668Y-33.274
X141.63Y-33.274
X145.593Y-33.274
X149.555Y-33.274
X153.518Y-33.274
X157.48Y-33.274
X161.442Y-33.274
X165.456Y-33.274
X169.418Y-33.274
X173.355Y-33.274
T2
X93.041Y-74.778
X94.447Y-71.383
X94.447Y-78.172
X97.841Y-69.978
X97.841Y-79.578
X101.235Y-71.383
X101.235Y-78.172
X102.641Y-74.778
T3
X109.528Y-66.368
X109.528Y-68.908
X109.528Y-71.448
X109.528Y-73.988
X112.068Y-67.638
X112.068Y-70.178
X112.068Y-72.718
X112.068Y-75.258
X127.562Y-67.592
X127.562Y-70.132
X127.562Y-72.672
X127.562Y-75.212
X130.102Y-66.322
X130.102Y-68.862
X130.102Y-71.402
X130.102Y-73.942
X156.899Y-66.19
X156.899Y-68.73
X156.899Y-71.27
X156.899Y-73.81
X159.439Y-67.46
X159.439Y-70.0
X159.439Y-72.54
X159.439Y-75.08
T4
X121.466Y-63.02
X121.466Y-78.56
X139.5Y-63.02
X139.5Y-78.56
X168.837Y-62.842
X168.837Y-78.382
T5
X97.841Y-74.778
T0
M30
