G04 #@! TF.GenerationSoftware,KiCad,Pcbnew,(5.99.0-12896-g1860893d63)*
G04 #@! TF.CreationDate,2021-12-10T21:36:47+01:00*
G04 #@! TF.ProjectId,HP_44491A_to_UTP_v2,48505f34-3434-4393-9141-5f746f5f5554,rev?*
G04 #@! TF.SameCoordinates,Original*
G04 #@! TF.FileFunction,Legend,Bot*
G04 #@! TF.FilePolarity,Positive*
%FSLAX46Y46*%
G04 Gerber Fmt 4.6, Leading zero omitted, Abs format (unit mm)*
G04 Created by KiCad (PCBNEW (5.99.0-12896-g1860893d63)) date 2021-12-10 21:36:47*
%MOMM*%
%LPD*%
G01*
G04 APERTURE LIST*
%ADD10C,0.150000*%
%ADD11C,0.120000*%
%ADD12C,3.650000*%
%ADD13R,1.500000X1.500000*%
%ADD14C,1.500000*%
%ADD15C,3.000000*%
%ADD16C,0.900000*%
%ADD17C,12.800000*%
%ADD18C,8.000000*%
G04 APERTURE END LIST*
D10*
X143554380Y-70438466D02*
X144268666Y-70438466D01*
X144411523Y-70390847D01*
X144506761Y-70295609D01*
X144554380Y-70152752D01*
X144554380Y-70057514D01*
X143649619Y-70867038D02*
X143602000Y-70914657D01*
X143554380Y-71009895D01*
X143554380Y-71247990D01*
X143602000Y-71343228D01*
X143649619Y-71390847D01*
X143744857Y-71438466D01*
X143840095Y-71438466D01*
X143982952Y-71390847D01*
X144554380Y-70819419D01*
X144554380Y-71438466D01*
D11*
X143052000Y-78631800D02*
X143052000Y-62901800D01*
X130102000Y-62821800D02*
X129602000Y-62321800D01*
X126312000Y-78621800D02*
X126312000Y-62901800D01*
X126312000Y-62901800D02*
X143052000Y-62901800D01*
X129602000Y-62321800D02*
X130602000Y-62321800D01*
X126312000Y-78631800D02*
X143052000Y-78631800D01*
X130602000Y-62321800D02*
X130102000Y-62821800D01*
D12*
X136452000Y-65051800D03*
X136452000Y-76481800D03*
X165789000Y-76350000D03*
X165789000Y-64920000D03*
X118418000Y-65097800D03*
X118418000Y-76527800D03*
%LPC*%
D11*
X176022000Y-35306000D02*
X90170000Y-35306000D01*
X90170000Y-35306000D02*
X90170000Y-17526000D01*
X90170000Y-17526000D02*
X176022000Y-17526000D01*
X176022000Y-17526000D02*
X176022000Y-35306000D01*
G36*
X176022000Y-35306000D02*
G01*
X90170000Y-35306000D01*
X90170000Y-17526000D01*
X176022000Y-17526000D01*
X176022000Y-35306000D01*
G37*
X176022000Y-35306000D02*
X90170000Y-35306000D01*
X90170000Y-17526000D01*
X176022000Y-17526000D01*
X176022000Y-35306000D01*
D12*
X136452000Y-65051800D03*
X136452000Y-76481800D03*
D13*
X130102000Y-66321800D03*
D14*
X127562000Y-67591800D03*
X130102000Y-68861800D03*
X127562000Y-70131800D03*
X130102000Y-71401800D03*
X127562000Y-72671800D03*
X130102000Y-73941800D03*
X127562000Y-75211800D03*
D15*
X139500000Y-78559800D03*
X139500000Y-63019800D03*
D16*
X97840800Y-69977600D03*
X93040800Y-74777600D03*
X101234913Y-78171713D03*
X94446687Y-71383487D03*
X101234913Y-71383487D03*
D17*
X97840800Y-74777600D03*
D16*
X97840800Y-79577600D03*
X102640800Y-74777600D03*
X94446687Y-78171713D03*
D12*
X165789000Y-76350000D03*
X165789000Y-64920000D03*
D13*
X159439000Y-75080000D03*
D14*
X156899000Y-73810000D03*
X159439000Y-72540000D03*
X156899000Y-71270000D03*
X159439000Y-70000000D03*
X156899000Y-68730000D03*
X159439000Y-67460000D03*
X156899000Y-66190000D03*
D15*
X168837000Y-78382000D03*
X168837000Y-62842000D03*
D12*
X118418000Y-65097800D03*
X118418000Y-76527800D03*
D13*
X112068000Y-75257800D03*
D14*
X109528000Y-73987800D03*
X112068000Y-72717800D03*
X109528000Y-71447800D03*
X112068000Y-70177800D03*
X109528000Y-68907800D03*
X112068000Y-67637800D03*
X109528000Y-66367800D03*
D15*
X121466000Y-78559800D03*
X121466000Y-63019800D03*
D18*
X150096000Y-48026000D03*
X116096000Y-48026000D03*
D16*
X97942400Y-33274000D03*
X101904800Y-33274000D03*
X113842800Y-33274000D03*
X117805200Y-33274000D03*
X129692400Y-33274000D03*
X133654800Y-33274000D03*
X145592800Y-33274000D03*
X149555200Y-33274000D03*
X105918000Y-33274000D03*
X109829600Y-33274000D03*
X121767600Y-33274000D03*
X125730000Y-33274000D03*
X137668000Y-33274000D03*
X141630400Y-33274000D03*
X153517600Y-33274000D03*
X157480000Y-33274000D03*
X161442400Y-33274000D03*
X165455600Y-33274000D03*
X169418000Y-33274000D03*
X173355000Y-33274000D03*
M02*
